<svg xmlns="http://www.w3.org/2000/svg" viewBox="0 0 86.83 83.12"><defs><style>.cls-1{fill:#f3e600;stroke:#1d1d1b;stroke-miterlimit:10;stroke-width:2px;}</style></defs><g id="Capa_2" data-name="Capa 2"><g id="Capa_1-2" data-name="Capa 1"><path class="cls-1" d="M41.33,71.46,22.05,81.59a4.47,4.47,0,0,1-6.49-4.72l3.68-21.46a4.47,4.47,0,0,0-1.29-4L2.36,36.24a4.47,4.47,0,0,1,2.48-7.63l21.55-3.14A4.46,4.46,0,0,0,29.76,23L39.4,3.5a4.48,4.48,0,0,1,8,0L57.07,23a4.46,4.46,0,0,0,3.37,2.44L82,28.61a4.47,4.47,0,0,1,2.48,7.63L68.88,51.44a4.47,4.47,0,0,0-1.29,4l3.68,21.46a4.48,4.48,0,0,1-6.5,4.72L45.5,71.46A4.46,4.46,0,0,0,41.33,71.46Z"/></g></g></svg>