<svg xmlns="http://www.w3.org/2000/svg" xmlns:xlink="http://www.w3.org/1999/xlink" viewBox="0 0 152.74 482.09"><defs><style>.cls-1,.cls-2{stroke:#1d1d1b;stroke-miterlimit:10;stroke-width:2px;}.cls-1{fill:url(#Degradado_sin_nombre_6);}.cls-2{fill:#fff;}</style><linearGradient id="Degradado_sin_nombre_6" x1="78.04" y1="488.3" x2="75.82" y2="-30.28" gradientUnits="userSpaceOnUse"><stop offset="0" stop-color="#fcea10"/><stop offset="0.56" stop-color="#f39200"/></linearGradient></defs><g id="Capa_2" data-name="Capa 2"><g id="Capa_1-2" data-name="Capa 1"><path class="cls-1" d="M149.4,101.73H132.84a4.65,4.65,0,0,0-4.65,4.65v239l19.87,64.88v70.12L76.37,439.92,4.69,480.38V410.26l20.23-64.88v-239a4.65,4.65,0,0,0-4.64-4.65H3.34A2.34,2.34,0,0,1,1.48,98l73-96.06a2.34,2.34,0,0,1,3.72,0l73,96.06A2.34,2.34,0,0,1,149.4,101.73Z"/><ellipse class="cls-2" cx="108.24" cy="158.55" rx="6.04" ry="2.96" transform="translate(-22.52 18) rotate(-8.61)"/><ellipse class="cls-2" cx="44.03" cy="180.28" rx="2.96" ry="6.04" transform="translate(-128.49 111.88) rotate(-54.65)"/><ellipse class="cls-2" cx="71.15" cy="165.61" rx="4.35" ry="6.13" transform="translate(-105.09 127.82) rotate(-54.65)"/><path class="cls-2" d="M149.4,101.72H132.84a4.65,4.65,0,0,0-4.65,4.65v20.92a25.44,25.44,0,0,1-11.29-3.87,7.67,7.67,0,0,1-13.64.76,18.11,18.11,0,0,1-22.21.88A95.36,95.36,0,0,1,67,129.33a18.11,18.11,0,0,1-35.59,1.22q-3.25-.5-6.44-1.19v-23a4.65,4.65,0,0,0-4.64-4.65H3.34A2.33,2.33,0,0,1,1.48,98l73-96.06a2.34,2.34,0,0,1,3.72,0l73,96.06A2.33,2.33,0,0,1,149.4,101.72Z"/></g></g></svg>