<svg xmlns="http://www.w3.org/2000/svg" viewBox="0 0 130.7 140.04"><defs><style>.cls-1{fill:#fff;}.cls-2{opacity:0.8;isolation:isolate;}.cls-3{fill:#a1b8c8;}.cls-4{fill:#fab73f;}.cls-5{fill:#d8d1b8;}.cls-6{fill:#fee0af;}</style></defs><g id="Capa_2" data-name="Capa 2"><g id="Capa_1-2" data-name="Capa 1"><rect class="cls-1" x="28.16" y="24.58" width="60.68" height="32.8"/><g class="cls-2"><path class="cls-1" d="M107.64,60.73s9.46-4.71,22.9-3c-13-6-22.9-1.38-22.9-1.38Z" transform="translate(-9.34 -9.15)"/></g><g class="cls-2"><path class="cls-1" d="M107.64,110.6a31.44,31.44,0,0,0,18-6.36c-6,11.18-18,10.85-18,10.85Z" transform="translate(-9.34 -9.15)"/></g><g class="cls-2"><path class="cls-3" d="M127.1,93.47c-1.94,7.7-9.49,14.41-19.46,14.79V62.05c4-1,20.89-4.59,22.07,2.78C131,73,129.16,85.36,127.1,93.47ZM102,130.81c0,10.33-68.4,10.33-68.4,0V32.45H102ZM139.3,57.12c-1.92-11.57-26.7-7.28-31.66-6.3V25.34H28V139.65c0,12.72,79.6,12.72,79.6,0V119.5c15-.5,26.58-13.57,29.82-26C139.77,84.55,140.88,66.65,139.3,57.12Z" transform="translate(-9.34 -9.15)"/></g><path class="cls-4" d="M98.18,66.52H37.5v61.1c0,9.16,60.68,9.16,60.68,0Z" transform="translate(-9.34 -9.15)"/><path class="cls-5" d="M102,24.88c0,5.94-7.34,10.76-16.4,10.76s-16.4-4.82-16.4-10.76,7.34-10.77,16.4-10.77S102,18.93,102,24.88Z" transform="translate(-9.34 -9.15)"/><path class="cls-5" d="M113.9,29.57c0,5-4.82,9-10.76,9s-10.74-4-10.74-9,4.81-9,10.74-9S113.9,24.56,113.9,29.57Z" transform="translate(-9.34 -9.15)"/><path class="cls-5" d="M35.84,59c0,4.89-4.47,8.86-10,8.86s-10-4-10-8.86,4.48-8.87,10-8.87S35.84,54.11,35.84,59Z" transform="translate(-9.34 -9.15)"/><path class="cls-5" d="M40.84,71c0,4.88-4.47,8.86-10,8.86s-10-4-10-8.86,4.48-8.87,10-8.87S40.84,66.05,40.84,71Z" transform="translate(-9.34 -9.15)"/><path class="cls-5" d="M60.53,30.39c0,9.63-8.82,17.46-19.72,17.46S21.09,40,21.09,30.39,29.93,12.9,40.81,12.9,60.53,20.71,60.53,30.39Z" transform="translate(-9.34 -9.15)"/><path class="cls-5" d="M42.34,43.33c0,8.4-7.37,15.21-16.5,15.21S9.34,51.73,9.34,43.33s7.39-15.22,16.5-15.22S42.34,34.91,42.34,43.33Z" transform="translate(-9.34 -9.15)"/><path class="cls-5" d="M80.84,22c0,7.06-6.69,12.8-15,12.8s-15-5.74-15-12.8,6.7-12.82,15-12.82S80.84,14.88,80.84,22Z" transform="translate(-9.34 -9.15)"/><path class="cls-1" d="M101.27,26.54c0,5.82-6.89,10.55-15.38,10.55S70.5,32.37,70.5,26.54,77.39,16,85.89,16,101.27,20.7,101.27,26.54Z" transform="translate(-9.34 -9.15)"/><path class="cls-1" d="M111.71,30c0,4.41-4.7,8-10.49,8s-10.49-3.57-10.49-8,4.69-8,10.49-8S111.71,25.54,111.71,30Z" transform="translate(-9.34 -9.15)"/><path class="cls-1" d="M38.59,58.55c0,4.63-4.37,8.4-9.76,8.4s-9.76-3.76-9.76-8.4,4.37-8.41,9.76-8.41S38.59,53.9,38.59,58.55Z" transform="translate(-9.34 -9.15)"/><path class="cls-1" d="M85.27,33.73c0,4.64-4.38,8.4-9.77,8.4s-9.76-3.76-9.76-8.4,4.38-8.41,9.76-8.41S85.27,29.08,85.27,33.73Z" transform="translate(-9.34 -9.15)"/><path class="cls-1" d="M62,32.11c0,9.14-8.61,16.55-19.24,16.55S23.52,41.25,23.52,32.11s8.62-16.58,19.24-16.58S62,22.93,62,32.11Z" transform="translate(-9.34 -9.15)"/><path class="cls-1" d="M44.26,43.82c0,7.65-7.22,13.86-16.11,13.86S12,51.47,12,43.82s7.22-13.88,16.11-13.88S44.26,36.14,44.26,43.82Z" transform="translate(-9.34 -9.15)"/><path class="cls-1" d="M67,56c0,7.65-7.21,13.86-16.11,13.86S34.83,63.66,34.83,56,42,42.13,50.93,42.13,67,48.33,67,56Z" transform="translate(-9.34 -9.15)"/><path class="cls-1" d="M80.84,24.13c0,6.69-6.31,12.13-14.1,12.13S52.63,30.82,52.63,24.13,59,12,66.74,12,80.84,17.4,80.84,24.13Z" transform="translate(-9.34 -9.15)"/><path class="cls-1" d="M42.76,71c0,4.64-4.37,8.39-9.76,8.39S23.24,75.6,23.24,71s4.37-8.41,9.76-8.41S42.76,66.31,42.76,71Z" transform="translate(-9.34 -9.15)"/><path class="cls-1" d="M52.16,66.53c0,4.47-4.22,8.09-9.4,8.09s-9.4-3.62-9.4-8.09,4.21-8.1,9.4-8.1S52.16,62.05,52.16,66.53Z" transform="translate(-9.34 -9.15)"/><path class="cls-5" d="M60.53,55.1a7.34,7.34,0,0,0-3-2.3,7.52,7.52,0,0,0-1.77-.51A10.34,10.34,0,0,0,54,52.2h-.85l-.33-.9a6.82,6.82,0,0,0-2.05-2.89,8.88,8.88,0,0,0-1.52-.95,6.08,6.08,0,0,0-.93-.38c-.26-.08-.59-.18-.89-.24a8.67,8.67,0,0,0-7.23,1.71l-1.09.91-.87-.81a4.49,4.49,0,0,0-.66-.51,5.68,5.68,0,0,0-.82-.41,5.06,5.06,0,0,0-1.92-.38,6.2,6.2,0,0,0-4,1.38,5.28,5.28,0,0,1,3.81-2.86,7.63,7.63,0,0,1,2.82,0,6.28,6.28,0,0,1,1.36.4,6.58,6.58,0,0,1,1.29.68l-2,.11c2.21-2.63,6.42-3.89,10.16-3a9.43,9.43,0,0,1,1.38.42,8.85,8.85,0,0,1,1.21.52,8.35,8.35,0,0,1,2.22,1.61,7.29,7.29,0,0,1,2.22,4.36L54.14,50a8.75,8.75,0,0,1,2.36.57,5.74,5.74,0,0,1,1,.5,5.5,5.5,0,0,1,.92.62A5.34,5.34,0,0,1,60.53,55.1Z" transform="translate(-9.34 -9.15)"/><path class="cls-5" d="M68.88,18.73a9.24,9.24,0,0,0-4,.23c-.34.11-.52.18-.87.32a4.07,4.07,0,0,0-.81.4,10.49,10.49,0,0,0-1.31,1l-.58.53-1-.41a9.32,9.32,0,0,0-3.87-.74,10.39,10.39,0,0,0-1.86.23,7.21,7.21,0,0,0-1.81.69,6.18,6.18,0,0,0-3.55,5.56l0,1.33-1.31,0a5,5,0,0,0-.88,0,5.2,5.2,0,0,0-.92.22,4.52,4.52,0,0,0-1.64.89,4.28,4.28,0,0,0-1.57,3.43,4,4,0,0,1,.18-4.31,6.05,6.05,0,0,1,1.94-1.74,6.68,6.68,0,0,1,1.27-.55,8.12,8.12,0,0,1,1.46-.31l-1.27,1.31c-.77-3.19,1.14-6.72,4.51-8.38a11.56,11.56,0,0,1,2.59-.89,10,10,0,0,1,2.9-.23A10.44,10.44,0,0,1,61.69,19l-1.56.13a8,8,0,0,1,2.15-1.06,6.16,6.16,0,0,1,1.14-.29,5.69,5.69,0,0,1,1.18-.13A7.5,7.5,0,0,1,68.88,18.73Z" transform="translate(-9.34 -9.15)"/><ellipse class="cls-6" cx="69.6" cy="75.62" rx="12.75" ry="12.04"/><ellipse class="cls-6" cx="51.17" cy="95.55" rx="9.56" ry="9.03"/><ellipse class="cls-6" cx="70.03" cy="103.85" rx="6.38" ry="6.02"/><ellipse class="cls-6" cx="55.85" cy="116.58" rx="4.47" ry="4.22"/></g></g></svg>