<svg id="Capa_1" data-name="Capa 1" xmlns="http://www.w3.org/2000/svg" xmlns:xlink="http://www.w3.org/1999/xlink" viewBox="0 0 595.28 199.55"><defs><style>.cls-1{mask:url(#mask);}.cls-2{fill:url(#Degradado_sin_nombre_36);}.cls-3{filter:url(#luminosity-invert);}</style><filter id="luminosity-invert" filterUnits="userSpaceOnUse" color-interpolation-filters="sRGB"><feColorMatrix values="-1 0 0 0 1 0 -1 0 0 1 0 0 -1 0 1 0 0 0 1 0"/></filter><mask id="mask" x="0" y="0" width="595.28" height="199.55" maskUnits="userSpaceOnUse"><g class="cls-3"><g transform="translate(0 -161.87)"><path d="M23.14,204.46,12.94,266.7A71.94,71.94,0,0,0,12,277.81q0,13.11,6.21,19.23t17.19,6.13a29.91,29.91,0,0,0,21.71-8.69Q66,285.79,69,266.7l10.2-62.24h2.62L71.65,266.7q-3.27,19.95-12.81,29.49T35,305.73q-12,0-18.83-6.84T9.41,278a72.88,72.88,0,0,1,.92-11.26l10.2-62.24Z"/><path d="M149.44,304.73h-2.61l-41.71-95-15.43,95H87.08L103.29,204.6h2.61l41.84,94.86L163,204.6h2.61Z"/><path d="M190.63,204.46,174.28,304.73h-2.61L188,204.46Z"/><path d="M254.82,244.84a28.15,28.15,0,0,1-13.47,7.76,19.12,19.12,0,0,1,11.25,7.2,21.71,21.71,0,0,1,4.31,13.6,28.86,28.86,0,0,1-.39,4.56,31.41,31.41,0,0,1-10.66,19.3q-8.69,7.47-22.94,7.47H196.51l16.34-100.27h26.41q12,0,17.72,5.27t5.68,14.1a34.08,34.08,0,0,1-.39,5.13Q260.71,238.94,254.82,244.84Zm-.52,28.56q0-9-6.15-14.17T230.89,254H207.36l-7.71,47.85h23.79q12.56,0,20.59-6.4T253.9,278A27.78,27.78,0,0,0,254.3,273.4ZM251,245.27q7-5.91,8.7-16.31a29.5,29.5,0,0,0,.39-4.7q0-7.83-5.23-12.39t-16.08-4.56h-23.8l-7.06,43.87h24.58Q244,251.18,251,245.27Z"/><path d="M288.16,207l-7.45,46.29h38.44l-.4,2.56H280.31l-7.45,46.29h42.36l-.52,2.56h-45l16.35-100.27h45l-.52,2.57Z"/><path d="M350.78,207l-7.45,46.29h38.44l-.39,2.56H342.94l-7.45,46.29h42.36l-.52,2.56h-45l16.34-100.27h45l-.52,2.57Z"/><path d="M453.88,210.23q6.33,5.78,6.34,16.17a34.48,34.48,0,0,1-.53,6.26q-2.08,12.26-9.48,19.45t-19.28,8.61l17.65,44h-3.27L427.79,261h-23l-7.19,43.72H395l16.34-100.27h23Q447.53,204.46,453.88,210.23Zm3.59,16.17q0-19.1-23.66-19.09h-20.4l-8.24,51h20.66q13.47,0,21.31-7T457,232.66A34.52,34.52,0,0,0,457.47,226.4Z"/><path d="M475.38,302.31a20.31,20.31,0,0,1-8.5-9,25,25,0,0,1-2.22-12.18h2.62a24.17,24.17,0,0,0,1.63,10,18.24,18.24,0,0,0,7.13,8.55q5.22,3.56,14.38,3.56,10.32,0,17.26-5.7a23.44,23.44,0,0,0,8.36-15.1,37.52,37.52,0,0,0,.4-5.27,19,19,0,0,0-3-11,22.92,22.92,0,0,0-7.45-6.9,101,101,0,0,0-11.77-5.56,103.3,103.3,0,0,1-11.7-5.48,22.3,22.3,0,0,1-7.39-6.84,18.66,18.66,0,0,1-3-10.9,31.9,31.9,0,0,1,.4-5,24.48,24.48,0,0,1,4.57-11,26,26,0,0,1,9.81-8,32.07,32.07,0,0,1,14.25-3,27.13,27.13,0,0,1,13.53,3.13,20.73,20.73,0,0,1,8.24,8,18.42,18.42,0,0,1,2.42,10h-2.62a16,16,0,0,0-2.22-8.27A19.53,19.53,0,0,0,513.1,209a23.81,23.81,0,0,0-12.35-3,28.14,28.14,0,0,0-17.07,5.2,21,21,0,0,0-8.56,14.17,26.15,26.15,0,0,0-.39,4.41,16.51,16.51,0,0,0,2.81,9.9,20.57,20.57,0,0,0,7,6.2q4.19,2.28,11.25,5.27a113.51,113.51,0,0,1,12.42,5.91A23.54,23.54,0,0,1,516,264.5a21.17,21.17,0,0,1,3.2,12,32.12,32.12,0,0,1-.52,5.84A29.3,29.3,0,0,1,514,294a26.06,26.06,0,0,1-9.74,8.55,30.48,30.48,0,0,1-14.25,3.2Q481.26,305.73,475.38,302.31Z"/><path d="M552.39,207l-7.45,46.29h38.44l-.39,2.56H544.55l-7.46,46.29h42.37l-.53,2.56H534L550.3,204.46h45l-.53,2.57Z"/></g></g></mask><radialGradient id="Degradado_sin_nombre_36" cx="297.64" cy="128.9" r="606.67" gradientUnits="userSpaceOnUse"><stop offset="0" stop-color="#27a3dd"/><stop offset="0.17" stop-color="#2787c8"/><stop offset="0.37" stop-color="#276bb3"/><stop offset="0.58" stop-color="#2757a4"/><stop offset="0.79" stop-color="#274b9b"/><stop offset="1" stop-color="#274798"/></radialGradient></defs><g class="cls-1"><rect class="cls-2" width="595.28" height="199.55"/></g></svg>