<svg xmlns="http://www.w3.org/2000/svg" viewBox="0 0 32.93 134.05"><defs><style>.cls-1{fill:#13110c;}.cls-1,.cls-10,.cls-11,.cls-12,.cls-13,.cls-14,.cls-15,.cls-16,.cls-17,.cls-2,.cls-3,.cls-4,.cls-5,.cls-6,.cls-7,.cls-8,.cls-9{fill-rule:evenodd;}.cls-2{fill:#f1d100;}.cls-3{fill:#ac951b;}.cls-4{fill:#fff;}.cls-5{fill:#bcb9b8;}.cls-6{fill:#f1d200;}.cls-7{fill:#a9921c;}.cls-8{fill:#161411;}.cls-9{fill:#fae986;}.cls-10{fill:#fae984;}.cls-11{fill:#13120d;}.cls-12{fill:#fae882;}.cls-13{fill:#fae881;}.cls-14{fill:#15130e;}.cls-15{fill:#201f24;}.cls-16{fill:#e1e5ee;}.cls-17{fill:#9fa1a5;}</style></defs><g id="Capa_2" data-name="Capa 2"><g id="Capa_1-2" data-name="Capa 1"><path class="cls-1" d="M.2,110.3C0,99.41.09,86.82,0,74.23A28.75,28.75,0,0,1,4.89,57.14C6.61,54.67,6.6,51.81,6.82,49,7.38,41.78,8,34.58,8.51,27.38c.31-4.18.55-8.37.78-12.55.18-3.14-.58-6.21-.76-9.32a3.18,3.18,0,0,0-.28-.94A2.82,2.82,0,0,1,10.51.43a32,32,0,0,1,12,.28c2.14.49,3.13,2,2.45,4-1.61,4.89-1.43,9.86-1.05,14.89.62,7.9,1.11,15.82,1.68,23.73.22,3.11.51,6.22.78,9.34a9.29,9.29,0,0,0,1.18,3.47c1.1,2.1,2.12,4.25,3.22,6.36A22,22,0,0,1,32.93,72.9q0,12.84-.08,25.68c0,7.94-.08,15.88-.17,23.82,0,2.42-.19,4.84-.36,7.26a3.24,3.24,0,0,1-2.93,3.4,35.63,35.63,0,0,1-6.82.92c-4.48.13-9,.07-13.44,0a28.22,28.22,0,0,1-5.7-.91,3.34,3.34,0,0,1-2.8-3.41C.23,123.75.1,117.87.2,110.3Z"/><path class="cls-2" d="M12,34.44c3.74.08,7.48.19,11.22.23,1,0,.76.73.81,1.2.3,3.44.54,6.88.82,10.33.2,2.46.44,4.91.64,7.37a7.16,7.16,0,0,0,1.3,3.55c3.77,5.45,5.15,11.56,5,18.1-.08,3.41-.08,6.83-.09,10.24,0,10.21,0,20.42-.09,30.62,0,4.4-.12,8.8-.41,13.2-.12.74-.68.81-1.28.86-4.46.39-8.91.57-13.39.53a27.46,27.46,0,0,1-10-2.4,1.56,1.56,0,0,1-1-1A20.92,20.92,0,0,1,4.84,122a.72.72,0,0,1,.28-.53,3,3,0,0,1,1.81-.23A208.71,208.71,0,0,0,28,122c1.78,0,1.81-.09,1.87-1.9.45-13.95.14-27.9.27-41.84,0-1.77-.33-3.52-.27-5.28-.31-.77-1-.62-1.58-.62H7.92c-1.81,0-2-.39-2.07-2.21A33.94,33.94,0,0,1,8.43,57.38a2,2,0,0,1,.77-1.22,109.63,109.63,0,0,0,12.16.39,7.14,7.14,0,0,0,1.72-.19c-3.61-.08-7.23,0-10.84-.07A12.6,12.6,0,0,1,9.31,56c-.3-.46,0-.88.11-1.29a35.85,35.85,0,0,0,1.77-10.65,80.68,80.68,0,0,1,.41-8.36A2.06,2.06,0,0,1,12,34.44Z"/><path class="cls-3" d="M12,34.44c-.17,4.24-.25,8.48-.54,12.7a25.52,25.52,0,0,1-2.16,8.74.24.24,0,0,0,0,.33A36.87,36.87,0,0,0,6.15,70.65c0,.91.3,1.34,1.37,1.34,7.15-.06,14.31,0,21.47,0,.52,0,1.38-.34,1.25.78a11.77,11.77,0,0,0-2.44-.15c-6.55,0-13.09,0-19.64,0-1.24,0-2.46-.21-3.69-.22-.81,0-1.22.24-1.33,1.17-.27,2.13-.3,4.27-.37,6.39-.38,12.51-.27,25-.26,37.53,0,.2,0,.41,0,.61.06,1.58.13,3.16,2.28,3.31.12,0,.18.16.26.25.24,1.7.34,3.42.68,5.11a1.47,1.47,0,0,0,1,1.25,30.75,30.75,0,0,0,11.62,2.34c4,0,8-.44,11.93-.56a1.19,1.19,0,0,0,.91-.51c-.19,1.71-.73,2.35-2.34,2.67a60.54,60.54,0,0,1-14.6.92c-3.32-.12-6.65,0-9.92-.85-1.94-.5-2.42-1-2.58-3-.5-6.15-.4-12.32-.43-18.49,0-11.39,0-22.79-.09-34.18a71.5,71.5,0,0,1,.23-7.75,21.2,21.2,0,0,1,3.34-8.93A22.46,22.46,0,0,0,8,48.21c.17-4.22.65-8.43.9-12.65.06-1.09.41-1.47,1.46-1.28.52.09,1.06.11,1.59.16Z"/><path class="cls-4" d="M22.88,8.79c-.69,5.17,0,10.32.35,15.47.17,2.75.4,5.49.62,8.23,0,.67-.05,1-.9,1-3.65,0-7.31,0-11-.06a2.93,2.93,0,0,1-.56-2.33,29.54,29.54,0,0,0,.15-4.79c-.13-4.15.24-8.29.27-12.44,0-1.4-.25-2.78-.24-4.17s.32-1.83,1.81-1.85c2.71,0,5.42,0,8.13,0,.55,0,1.45-.22,1.33.9Z"/><path class="cls-5" d="M22.88,8.79c-.11-.47-.46-.5-.85-.5-3,0-6.09,0-9.13,0-.7,0-1,.25-.91.94.1,1.15.22,2.29.21,3.44-.06,5.75-.12,11.5-.28,17.25A24.59,24.59,0,0,0,12,33.45c-2.84.15-2.88.15-2.68-2.61.45-6.11.62-12.23.95-18.35.13-2.33-.62-4.54-.67-6.85,0-.91.22-1.06,1.06-1.15,3.56-.36,7.11,0,10.67,0,2,0,2.43.56,2,2.49-.13.59-.29,1.18-.44,1.78Z"/><path class="cls-6" d="M12.48,1.09a24.55,24.55,0,0,1,10.2.53,2,2,0,0,1,1.11.73,1.39,1.39,0,0,1,.37,1.25c-.18.49-.72.22-1.08.19-3.11-.21-6.21-.47-9.32-.43a.65.65,0,0,1-.36.07c-.51-.1-1.28.35-1.51-.37a1.65,1.65,0,0,1,.59-2Z"/><path class="cls-7" d="M12.48,1.09a.36.36,0,0,0,0,.11c-.6,2-.6,2,1.32,2.16a27.32,27.32,0,0,1-4.52.2c-.52,0-.49-.3-.39-.65a2.27,2.27,0,0,1,2-1.71,14,14,0,0,1,1.59-.11Z"/><path class="cls-8" d="M5.08,121.65c-2.77-.48-2.8-.48-2.88-3.58C2,110,2.07,101.86,2.13,93.75c.05-5.92.23-11.84.46-17.76.15-4,.1-3.87,4.1-3.83,7.37.08,14.73,0,22.1,0,.54,0,1.19-.19,1.45.56.5,12.79.28,25.58.22,38.36,0,3.21-.21,6.41-.2,9.62,0,1.26-.36,1.67-1.65,1.67-7.16,0-14.3-.13-21.44-.71-.69-.06-1.39,0-2.09,0Z"/><path class="cls-9" d="M23.84,51.57c-.06.44-.16,1-.21,1.49s-.2.82-.7.88a.89.89,0,0,1-1-.73,18.17,18.17,0,0,1-.51-2.9c-.28-3.88-.86-7.75-.3-11.65.09-.62.21-1.17.92-1.24s.81.56,1,1.06a1.83,1.83,0,0,1,.08.61c-.17,3.5.43,6.95.55,10.43,0,.66.13,1.3.21,2Z"/><path class="cls-10" d="M24.56,61.83c0-.62.08-1.2.74-1.42s1,.27,1.32.81c.66,1.23,1.32,2.45,2,3.69a1.24,1.24,0,0,1-.53,1.7,1.2,1.2,0,0,1-1.76-.25,10.13,10.13,0,0,1-1.73-4.53Z"/><path class="cls-11" d="M9.29,56.21q-.31-.16,0-.33H24.56c-1.6,1.45-11.26,1.56-15.27.33Z"/><path class="cls-12" d="M23.18,64.05a1.37,1.37,0,0,1,1.4,1.32,1.13,1.13,0,0,1-1.14,1.33,1.27,1.27,0,0,1-1.35-1.31,1.17,1.17,0,0,1,1.09-1.34Z"/><path class="cls-13" d="M19.37,62.78c0-.77.4-1.2,1.15-1.18a1,1,0,0,1,1.08,1.18A1.2,1.2,0,0,1,20.38,64c-.77,0-.9-.69-1-1.26Z"/><path class="cls-14" d="M21.82,6.15a9.53,9.53,0,0,1-3.55.57c-2,.13-4,.15-6,.19-.32,0-.86.18-.85-.4s.56-.35.88-.35c3.13,0,6.27,0,9.53,0Z"/><path class="cls-15" d="M29.28,109.53c0,3.58,0,7.16,0,10.73,0,.85-.24,1.14-1.11,1.14-3.83-.05-7.66.15-11.47-.07A123,123,0,0,1,4,120.44c-.79-.12-.9-.45-.9-1.12q0-10.17,0-20.36c0-.68.13-1,.93-1.06a121.63,121.63,0,0,1,15.85-.43c2.77.11,5.55.19,8.32.18.88,0,1.11.3,1.1,1.14,0,3.58,0,7.16,0,10.74Z"/><path class="cls-16" d="M29.57,79.44c-.09,5.42-.19,10.83-.23,16.24,0,.9-.28,1-1.11,1.06-4.26,0-8.52.16-12.78.24-1.18.15-2.36,0-3.53.07-1.73,0-3.46,0-5.19,0-.93,0-1.28-.35-1.3-1.2,0-1.28,0-2.55,0-3.83,0-2.8,0-5.59,0-8.39a46.46,46.46,0,0,1,.43-6.77,16.83,16.83,0,0,0,0-2.46c0-.87.32-1.34,1.32-1.34q10.76,0,21.48,0c.71,0,1.06.11,1,.93-.09,1.81.08,3.62-.09,5.42Z"/><path class="cls-17" d="M29.57,79.44a33.92,33.92,0,0,1,0-5c0-.89-.19-1.22-1.15-1.21-7,0-14.07,0-21.1,0-.68,0-1.2.16-1.13.89.32,3.42-.53,6.78-.38,10.19.17,3.78.09,7.57,0,11.35,0,1.13.35,1.4,1.4,1.34,1.6-.08,3.2,0,4.8,0,.06.12,0,.17-.11.18-2.51,0-5,0-7.52.07-1.12,0-1.48-.12-1.43-1.42.18-4.47.13-9,.19-13.43,0-2.84.13-5.67.16-8.51,0-.64.21-.84.85-.84,8.27,0,16.53,0,24.79,0,.43,0,.87,0,.84.59a54.93,54.93,0,0,1-.21,5.88Z"/><path class="cls-15" d="M11.9,97.13A1.74,1.74,0,0,1,12,97l3.44,0a10.1,10.1,0,0,1-3.55.15Z"/></g></g></svg>