<svg xmlns="http://www.w3.org/2000/svg" viewBox="0 0 37.25 140.38"><defs><style>.cls-1{fill:#13120d;}.cls-1,.cls-10,.cls-11,.cls-12,.cls-13,.cls-14,.cls-2,.cls-3,.cls-4,.cls-5,.cls-6,.cls-7,.cls-8,.cls-9{fill-rule:evenodd;}.cls-2{fill:#2b307d;}.cls-3{fill:#eeeeea;}.cls-4{fill:#61ab30;}.cls-5{fill:#272859;}.cls-6{fill:#447b30;}.cls-7{fill:#28285c;}.cls-8{fill:#aaa8a2;}.cls-9{fill:#60aa30;}.cls-10{fill:#f7f6f3;}.cls-11{fill:#b1ada9;}.cls-12{fill:#bcd89c;}.cls-13{fill:#b7d695;}.cls-14{fill:#b8d697;}</style></defs><g id="Capa_2" data-name="Capa 2"><g id="Capa_1-2" data-name="Capa 1"><path class="cls-1" d="M18.64,140.33a22.37,22.37,0,0,1-10.06-1.46A16,16,0,0,1,1,132.08,7.27,7.27,0,0,1,0,128c.36-9.17.62-18.33.57-27.51Q.51,82.6.6,64.76a50,50,0,0,1,.67-10.44,10.37,10.37,0,0,1,2.87-5.49C6.93,46.22,8,42.92,8.43,39.29Q9.9,26.93,11.34,14.58a9.7,9.7,0,0,0-.5-5.45,6.4,6.4,0,0,1-.31-2.42A7.72,7.72,0,0,0,10,3.84C9.49,2.6,10.82.78,12.5.44A23.24,23.24,0,0,1,16,.05a33,33,0,0,1,8.59.58,3.11,3.11,0,0,1,2.7,2.51,2.26,2.26,0,0,1,0,1A30.65,30.65,0,0,0,26,16.64c1,7.41,1.8,14.85,2.64,22.29a16.07,16.07,0,0,0,4.58,10.22c2.29,2.24,2.86,5.24,3.05,8.26.49,7.85.19,15.71.17,23.57,0,8.06.06,16.13.06,24.19,0,6.83.58,13.64.74,20.46a14,14,0,0,1-12,14.26,29.88,29.88,0,0,1-6.61.44Z"/><path class="cls-2" d="M4.7,69c3.79-.15,7.56.26,11.34.25,4.32,0,8.64.11,12.94-.24,1.14-.1,1.38.22,1.15,1.33A180.48,180.48,0,0,1,25.47,88a175.71,175.71,0,0,1-10.2,25.6c-1.52,3-3.35,5.85-4.79,8.9a1.54,1.54,0,0,1-2,.88,10,10,0,0,1-2.52-1,4.66,4.66,0,0,1-.82-2.79c-.49-5.69-1.26-11.35-1.36-17.07a44.85,44.85,0,0,0-.36-5.78,27.3,27.3,0,0,1,.19-3.93c0-4.81-.14-9.62.27-14.41.19-2.26.16-4.52.23-6.77A4.34,4.34,0,0,1,4.7,69Z"/><path class="cls-3" d="M35.32,88.73c0,3.13.06,6.25,0,9.38-.12,6.09.29,12.16.32,18.25,0,1,.23,2,.33,3.06a1.92,1.92,0,0,1-1.31,2.3,46,46,0,0,1-12,2.64,43,43,0,0,1-10.45-.31c-1.47-.2-1.52-.27-.83-1.55,1.47-2.7,3-5.37,4.46-8.07,2.63-4.84,4.45-10,6.53-15.11a160.63,160.63,0,0,0,7.34-23.46c.48-2,.81-3.94,1.17-5.92.12-.64.36-1,1.09-1,.57,0,1.14-.12,1.72-.16,1.62-.13,1.65-.13,1.65,1.56q0,9.19,0,18.39Z"/><path class="cls-4" d="M13.84,38.7c4.13-.39,8.21.21,12.28.74a2,2,0,0,1,1.78,1.9,13.48,13.48,0,0,0,4.1,8.2A11,11,0,0,1,35.09,57c.14,3.12.24,6.24.37,9.36,0,.93-.16,1.42-1.29,1.54a158,158,0,0,1-19.09.64c-3.21,0-6.41-.17-9.62-.26-.28,0-.58.07-.82-.17a1.47,1.47,0,0,1-.26-.81c.24-4.36.09-8.79,1.79-13A28.2,28.2,0,0,1,9,49.19a28.2,28.2,0,0,0,3.87-9c.15-.61.11-1.36,1-1.5Z"/><path class="cls-4" d="M6.18,123.63c2.28.49,4.51,1.17,6.84,1.51a46.82,46.82,0,0,0,19.23-1.6c1-.27,2-.59,2.94-.91.46-.15.81-.18.82.45.05,2.63.31,5.27-.67,7.8a9.19,9.19,0,0,1-2.93,3.89,7.88,7.88,0,0,1-2.64,1,72.59,72.59,0,0,1-7.67,1.86A13.42,13.42,0,0,1,9.45,133,13.49,13.49,0,0,1,6,124.08a.74.74,0,0,1,.17-.45Z"/><path class="cls-3" d="M15.58,12.76a15,15,0,0,1,7.42.18,2.19,2.19,0,0,1,1.75,2q1.32,11.39,2.7,22.76c.11.92-.13,1.1-1,1a59.67,59.67,0,0,0-6-.62,3.11,3.11,0,0,1-2.88-2.18c-1.07-2.66-2-5.36-3.05-8,.21-3.3.33-6.61.71-9.9a12.47,12.47,0,0,0,0-3.66,1.62,1.62,0,0,1,.3-1.51Z"/><path class="cls-5" d="M4.7,69c-.17,4-.21,7.95-.55,11.9C4,83.15,4,85.36,4,87.57c0,4.09-.28,8.18,0,12.26.35,5.18.45,10.36,1.15,15.52.31,2.33.45,4.7.81,7a30.92,30.92,0,0,1-3.84-1.29c-.52-.17-.62-.56-.61-1.07,0-1.39.15-2.78.2-4.17.16-4.61.36-9.22.24-13.82C1.63,91.69,1.82,81.33,1.73,71c0-2.19-.32-1.91,2-1.94.33,0,.66,0,1,0Z"/><path class="cls-6" d="M6.18,123.63a11,11,0,0,1,.28,2.06,15,15,0,0,0,3,6.81,13.12,13.12,0,0,0,8.12,4.72c3.7.78,7.12-.54,10.6-1.36,1.43-.34,2.85-.72,4.28-1.09a14.37,14.37,0,0,1-9.25,4.37,32,32,0,0,1-11.37-.44,14.92,14.92,0,0,1-9.44-6.78,7.34,7.34,0,0,1-1.11-4v-5.55c0-.42-.06-.88.66-.57,1.41.63,2.85,1.21,4.28,1.81Z"/><path class="cls-6" d="M13.84,38.7a1.47,1.47,0,0,0-.52.9A30.52,30.52,0,0,1,8.71,50.23,19.76,19.76,0,0,0,5.15,60.54c-.11,2.53-.43,5.05-.51,7.58-2.89-.11-3-.12-2.85-3,.18-3.24,0-6.49.45-9.71a10.25,10.25,0,0,1,3.06-6,13.94,13.94,0,0,0,4.08-8.73c.09-.85.41-1.39,1.31-1.49,1.06-.13,2.1-.3,3.15-.44Z"/><path class="cls-6" d="M16.36,11.78c-1,.18-1.92.34-2.88.54-.38.08-.52-.08-.62-.4-.63-2-1.45-3.93-1.27-6.1.1-1.28.45-1.7,1.68-1.45a4.51,4.51,0,0,0,2.62-.21,4.71,4.71,0,0,1,1.84-.07c2.25.14,4.5.32,6.75.48.42,0,.9,0,.93.59a8.77,8.77,0,0,1-.19,3.64c-2.88-.39-5.78-.35-8.67-.54-.59,0-.87.23-.79.8a6.73,6.73,0,0,0,.6,2.72Z"/><path class="cls-7" d="M11.78,23.89c.57,1.34,1.17,2.68,1.72,4,1.19,2.92,2.35,5.85,3.57,8.76.32.77.17,1-.65,1-1.84.09-3.67.26-5.5.44-.82.08-1.07-.22-1.05-1a76.92,76.92,0,0,1,.89-8.29,14.75,14.75,0,0,1,1-5Z"/><path class="cls-8" d="M15.58,12.76c.35,4.79-.31,9.52-.78,14.27a4.14,4.14,0,0,1-.26.8c-1.2-2.79-2.91-5.44-2.7-8.65a40.06,40.06,0,0,1,.61-4.75c.33-1.75,1.88-1.49,3.13-1.67Z"/><path class="cls-9" d="M16.36,11.78c-.23-.08-.64-.14-.65-.24a14.88,14.88,0,0,1-.33-3.39c.07-.5.59-.38.93-.33,2.64.34,5.32.22,8,.45.41,0,.86-.06.94.53-.16.5-.3,1-.51,1.51-.29.67.05,1.71-.61,2-.5.22-1.31-.22-2-.37a23.15,23.15,0,0,0-5.76-.17Z"/><path class="cls-10" d="M15.33.9a27.63,27.63,0,0,1,8.79.48,4.59,4.59,0,0,1,1.27.4,1.83,1.83,0,0,1,.95,1.74c-.1.58-.89.2-1.36.17a97.45,97.45,0,0,0-10.67-.24,2,2,0,0,1-.48-.09C13.32,2,13.73,1.3,15.33.9Z"/><path class="cls-11" d="M15.33.9a2.16,2.16,0,0,0-1.5,2.46c-.6.06-1.21.11-1.81.19-1,.13-1.09-.43-.82-1.17a1.59,1.59,0,0,1,1.26-1c.95-.16,1.91-.3,2.87-.44Z"/><path class="cls-12" d="M28.92,61.16c-.1-3.83-.53-7.17-2.56-10.27a11.52,11.52,0,0,1-2.17-7.31c0-.6-.13-1.4.63-1.56s.89.69,1.18,1.2c.6,1.07.71,2.32,1.39,3.4s1.31,2.26,2.11,3.31c2.57,3.32,3,7.15,2.63,11.18a1.57,1.57,0,0,1-.05.37c-.25.82-.47,1.8-1.4,2s-1.1-.87-1.57-1.48c-.48.4-.94.9-1.58.36a.86.86,0,0,1-.23-1.21c.38-.61.92-.61,1.62,0Z"/><path class="cls-13" d="M23,51.15c-.16.56-.49,1.06-1.06,1a1.2,1.2,0,0,1-1.13-1.34c0-.62.39-.88,1-.83A1.35,1.35,0,0,1,23,51.15Z"/><path class="cls-14" d="M26.7,54.45c0,.64-.26,1-.94,1a1,1,0,1,1,0-2c.66,0,1,.34,1,1Z"/></g></g></svg>