<svg xmlns="http://www.w3.org/2000/svg" viewBox="0 0 36.87 139.3"><defs><style>.cls-1{fill:#13110d;}.cls-1,.cls-10,.cls-11,.cls-12,.cls-13,.cls-14,.cls-2,.cls-3,.cls-4,.cls-5,.cls-6,.cls-7,.cls-8,.cls-9{fill-rule:evenodd;}.cls-2{fill:#bb4f18;}.cls-3{fill:#d6363a;}.cls-4{fill:#eee;}.cls-5{fill:#873b14;}.cls-6{fill:#9b2a29;}.cls-7{fill:#aaa7a5;}.cls-8{fill:#ce3437;}.cls-9{fill:#9a2a29;}.cls-10{fill:#e0af94;}.cls-11{fill:#dfad92;}.cls-12{fill:#dda98b;}.cls-13{fill:#e0af95;}.cls-14{fill:#171410;}</style></defs><g id="Capa_2" data-name="Capa 2"><g id="Capa_1-2" data-name="Capa 1"><path class="cls-1" d="M17.28,139.29A40,40,0,0,1,7,138.22a12.08,12.08,0,0,1-3.93-1.71,4.22,4.22,0,0,1-2-3.2c-.27-2.65-.62-5.29-1-7.93a3,3,0,0,1,.18-1.66,6.9,6.9,0,0,0,.34-3c-.68-8.58-.45-17.18-.44-25.77,0-5,.11-10,.37-15,.17-3.16-.28-6.3,0-9.47a25.58,25.58,0,0,1,3.36-10.7A25.92,25.92,0,0,0,7.24,48.38C8.11,37.24,8.92,26.1,9.76,15c.11-1.54.53-3-.21-4.58C9.23,9.73,9.66,9,10,8.28a11,11,0,0,0,.92-2.41c.09-.37.16-.8-.26-1a1.61,1.61,0,0,1-.86-2.16A2.87,2.87,0,0,1,11.88.52a18.19,18.19,0,0,1,4-.49,30.85,30.85,0,0,1,8.46.64c2.64.67,3.28,2.19,1.78,4.4a1,1,0,0,0-.08,1.12c.35.83.66,1.68,1,2.51a2.48,2.48,0,0,1,.2,1.91A6.33,6.33,0,0,0,27.05,14c.66,6.46.92,13,1.42,19.42s.84,13,1.94,19.38a21.53,21.53,0,0,0,2.37,6.3,28.32,28.32,0,0,1,3.65,15.25c-.13,2,0,4,0,5.93q.12,16.11.25,32.21c0,2.63-.07,5.25-.22,7.87a6.94,6.94,0,0,0,.07,2.09c.71,2.76.22,5.47-.21,8.19a4.21,4.21,0,0,0-.11.6c0,4.65-2.9,6.07-6.31,7-3.68,1-7.47,1-12.6,1Z"/><path class="cls-2" d="M12.92,41.5c3.56-.59,7,.28,10.54.58,1.06.09,2.11.29,3.18.37A1.39,1.39,0,0,1,28.15,44c.24,3.15.75,6.28,1.24,9.4s2.13,5.74,3.53,8.48A20.72,20.72,0,0,1,35.4,74.06a2.08,2.08,0,0,1-1.76,2.08c-5.7,1.6-11.51,1.6-17.35,1.41a90.81,90.81,0,0,1-10.78-1,3,3,0,0,1-.33-2.37c.24-2.29.33-4.58.63-6.86a11.85,11.85,0,0,1,1.6-4.61,37,37,0,0,0,4.92-17.21,9.72,9.72,0,0,1,.59-4Z"/><path class="cls-3" d="M6.27,77.5a126.49,126.49,0,0,0,13.88,1A59.33,59.33,0,0,0,34,77c1-.24,1.12.1,1.17.9.43,6.89.56,13.8.5,20.71a1.87,1.87,0,0,1-1.82,2.18,77.48,77.48,0,0,1-16.45,1.1,70.16,70.16,0,0,1-12.84-1.38c-.66-.37-.61-1-.64-1.62a65,65,0,0,1,.33-7.38c.17-2.45.21-4.91.36-7.36.11-1.84.34-3.68.32-5.53,0-.9.36-1.43,1.38-1.08Z"/><path class="cls-4" d="M5.05,101.45a79.21,79.21,0,0,0,15.67,1.38,74.31,74.31,0,0,0,13.47-1.28c.91-.18,1.29,0,1.34,1a134.58,134.58,0,0,1,0,14.76c0,.64-.28.87-.91,1A61,61,0,0,1,8.14,119.6,18.66,18.66,0,0,1,5,119a3.62,3.62,0,0,1-.54-2.23c-.16-4.63-.67-9.25-.57-13.89,0-.7-.17-1.73,1.16-1.45Z"/><path class="cls-2" d="M6,124.17a123.43,123.43,0,0,0,12.58,1.39,58.74,58.74,0,0,0,16-1.49c1.07-.25,1.43-.18,1.32,1.05-.24,2.78-.69,5.53-1.11,8.28a2.66,2.66,0,0,1-1.62,2.18,5.48,5.48,0,0,1-1.68.35,69.5,69.5,0,0,1-21.62-2.45c-2.69-.79-4.35-2.37-4.56-5.28-.07-1-.33-1.95-.38-2.94,0-.7.06-1.4,1.09-1.09Z"/><path class="cls-2" d="M25.7,7.9a4.68,4.68,0,0,1,.17,3.29c-.56,1.7.11,3.57.24,5.37.26,3.81.61,7.61,1,11.41.08.9-.28,1.25-1.11,1.37-3,.46-6.07,1-9.11,1.42a5.51,5.51,0,0,1-3.25-.37c-.56-1.33-.1-2.67,0-4,.28-3.34.46-6.7.85-10a9.23,9.23,0,0,0-.34-3.9,2.13,2.13,0,0,1-.05-1.68,2.32,2.32,0,0,1,1.54-.32,57.84,57.84,0,0,1,7.77.22c.46-.09.3-.33.33-.17s-.08.18-.14.17c-1.23-.1-2.46-.16-3.68-.3a15.33,15.33,0,0,0-4.06,0,2.2,2.2,0,0,1-1.78-.25c-.47-1.6.24-2.86,1.8-2.85,3,0,6,.27,8.94.24a1.34,1.34,0,0,1,.89.37Z"/><path class="cls-3" d="M14.42,31.56c3.37.42,6.59-.63,9.86-1.09,2.91-.41,2.93-.5,3.14,2.44.19,2.66.28,5.33.46,8,.05.75-.26.75-.87.68-3.45-.41-6.91-.81-10.38-1.14a28.38,28.38,0,0,0-3.19.08c-.7-.11-.68-.7-.63-1.13.27-2.2.12-4.41.26-6.61,0-.76.25-1.53,1.35-1.22Z"/><path class="cls-5" d="M12.92,41.5A51,51,0,0,1,10.17,58a14.67,14.67,0,0,1-1.63,3.44A13.59,13.59,0,0,0,6,68.29c-.15,2.74-.59,5.46-.5,8.22H5.39c-3.46-.24-3.79-.66-3.88-4.06a20,20,0,0,1,2.4-10.29c1.69-3.14,3.46-6.28,4-9.91.38-2.76.77-5.52,1-8.3a1.83,1.83,0,0,1,1.34-1.77,12.2,12.2,0,0,1,2.72-.69Z"/><path class="cls-5" d="M6,124.17c-.66,0-.86.36-.77,1,.21,1.45.4,2.9.66,4.35a4.16,4.16,0,0,0,3.23,3.36A62.16,62.16,0,0,0,23,135.39c3.41.14,6.81.08,10.21.19a17.46,17.46,0,0,1-6.84,2.2,55.72,55.72,0,0,1-10.8.46,46.46,46.46,0,0,1-7.79-1c-4.28-.93-5.51-2.3-6.13-6.62-.23-1.62-.37-3.25-.54-4.88a5.46,5.46,0,0,1,0-1c.14-1.62.18-1.65,1.74-1.31l3.21.69Z"/><path class="cls-5" d="M14.16,10.88c1,3,.69,6,.33,9.11-.29,2.43-.43,4.9-.56,7.35,0,1-.3,2-.31,3.05a10.24,10.24,0,0,1-3.42-1.31.7.7,0,0,1-.43-.79c.4-4.77.57-9.56,1.31-14.3.18-1.15.54-2.4-.32-3.53a1.41,1.41,0,0,1,.05-1.32,16.33,16.33,0,0,0,1.17-4c.11-.63.31-.94,1.13-.79a4.87,4.87,0,0,0,3.25-.29c.75-.39,1.46,0,2.16.13a19.75,19.75,0,0,0,4.54.19A1.67,1.67,0,0,1,25,5.8c.18.71.45,1.4.68,2.1-3-.09-6,0-9-.24-2.08-.17-2.46.33-2.5,2.44a.82.82,0,0,1-.27.22,4,4,0,0,0-.44.17c.13.14.33.07.48.16a.53.53,0,0,1,.24.23Z"/><path class="cls-3" d="M5,120.05a85,85,0,0,0,19.05,1,70.52,70.52,0,0,0,10.13-1.4c1-.21,1.29-.06,1.21,1-.16,2.33-.1,2.34-2.38,2.84a59.56,59.56,0,0,1-21.09.6c-2.24-.3-4.48-.59-6.68-1.1A2.29,2.29,0,0,1,5,120.05Z"/><path class="cls-6" d="M6.27,77.5c-.81-.07-1,.32-1,1.09-.07,3.93-.4,7.84-.53,11.76-.1,2.9-.46,5.78-.44,8.69a2.37,2.37,0,0,0,.25,1.43c-.67-.16-1.34-.37-2-.47-1.16-.17-1.48-.76-1.44-1.93.23-6.1.35-12.2.52-18.3,0-.94-.25-2.2.24-2.73s1.74,0,2.65.2c.6.11,1.24-.11,1.8.26Z"/><path class="cls-7" d="M5.05,101.45c-.55,0-.77.23-.77.82,0,3.55.15,7.1.42,10.64.15,2,.2,4.08.3,6.11-3.41-.16-3.68-.37-3.72-3.64-.05-4.73,0-9.46,0-14.19a5.11,5.11,0,0,1,.08-.68l3.7.94Z"/><path class="cls-6" d="M14.42,31.56a.85.85,0,0,0-1,.86c-.07,2.57,0,5.14-.25,7.7,0,.12.16.27.25.4l-3.19.86c-.75.21-1.15.09-1.1-.84.21-3.48.36-7,.54-10.6a38.41,38.41,0,0,0,4.73,1.62Z"/><path class="cls-8" d="M23.94,3.69a104.06,104.06,0,0,0-12.4-.25c-1,0-.93-.36-.6-1a2,2,0,0,1,1.52-1.14,28,28,0,0,1,11.71.18,4.4,4.4,0,0,1,.92.33,1.59,1.59,0,0,1,1,1.59c-.14.77-.89.17-1.35.31a3.76,3.76,0,0,1-.76,0Z"/><path class="cls-9" d="M5,120.05A7.16,7.16,0,0,0,5.26,123c-.6-.09-1.2-.17-1.8-.27-1.9-.32-1.85-.33-1.94-2.31,0-.85.2-1.07,1-.85s1.67.35,2.5.52Z"/><path class="cls-10" d="M30.15,69.7c0-1.36.48-2,1.41-2a1.92,1.92,0,0,1,1.65,2c.1,1.58-.29,2.22-1.39,2.24s-1.68-.65-1.67-2.18Z"/><path class="cls-11" d="M29.19,59.72c.65.17,1.26.5,1.23,1.35a.91.91,0,0,1-1.1.9A1.26,1.26,0,0,1,28,60.63c0-.62.47-.9,1.17-.91Z"/><path class="cls-11" d="M30.43,65.09a.9.9,0,0,1,1-1,1.08,1.08,0,0,1,.95,1.24c0,.67-.36,1.14-1.06,1.08s-.93-.58-.92-1.3Z"/><path class="cls-12" d="M28.44,64.49c.48.11.89.27.94.74a.8.8,0,1,1-1.6.14c0-.48.31-.71.66-.88Z"/><path class="cls-13" d="M25,23.69c0,.62,0,1.23,0,1.85s0,1.13-.63,1.17-.61-.57-.67-1c-.22-1.7-.49-3.4-.63-5.11-.16-2.12-.22-4.25-.3-6.38,0-.4-.07-.94.44-1s.67.46.84.88c.58,1.4.43,2.91.62,4.36.22,1.75.25,3.51.37,5.27Z"/><path class="cls-14" d="M14.16,10.88c-.52-.13-1.11.09-1.74-.22.54-.56,1.17-.47,1.73-.56,3.3-.24,6.59-.33,9.83.78Z"/></g></g></svg>