<svg xmlns="http://www.w3.org/2000/svg" viewBox="0 0 90.34 336"><defs><style>.cls-1{fill:#14120d;}.cls-1,.cls-10,.cls-11,.cls-12,.cls-13,.cls-14,.cls-2,.cls-3,.cls-4,.cls-5,.cls-6,.cls-7,.cls-8,.cls-9{fill-rule:evenodd;}.cls-2{fill:#1e1e1b;}.cls-3{fill:#f2ac00;}.cls-4{fill:#9b906e;}.cls-5{fill:#af7a19;}.cls-6{fill:#20201e;}.cls-7{fill:#6f654d;}.cls-8{fill:#968b6a;}.cls-9{fill:#958b6b;}.cls-10{fill:#fbd993;}.cls-11{fill:#fbd891;}.cls-12{fill:#fad68a;}.cls-13{fill:#13120d;}.cls-14{fill:#191611;}.cls-15{font-size:11px;font-family:LasVegas-Jackpot, LasVegas;letter-spacing:0.16em;}.cls-15,.cls-19{fill:#f6f6f6;}.cls-16{letter-spacing:0.18em;}.cls-17{letter-spacing:0.2em;}.cls-18{letter-spacing:0.18em;}.cls-19{font-size:44.72px;font-family:AldotheApache, Aldo the Apache;}</style></defs><g id="Capa_2" data-name="Capa 2"><g id="Capa_1-2" data-name="Capa 1"><path class="cls-1" d="M50.25.54c4.28.6,8.63.87,12.67,2.6,2.81,1.19,4,4.19,2.42,7.3a8.32,8.32,0,0,0-.19,7.69c1.46,3.52.21,7.49.62,11.27,2.33,21.67,2.71,43.49,5.4,65.14,1.58,12.6,3.52,25,11.09,35.76,3,4.29,4.55,9.44,5.7,14.58a71.58,71.58,0,0,1,1.49,18.25c-.26,7.69-.15,15.39-.17,23.08,0,18.51,0,37-.13,55.52-.09,11.09-.5,22.18-.74,33.27-.17,7.9.75,15.73,1.65,23.56,1.18,10.38-1.48,20.07-6.06,29.27-2.22,4.46-6.42,5.88-11.08,6.42a245.92,245.92,0,0,1-45.72,1.19,87.26,87.26,0,0,1-10.71-1.18A15.3,15.3,0,0,1,4.4,324c-4.05-10.76-5.66-21.79-3.31-33.19,1.26-6.09.54-12.23.52-18.34-.06-14.7-.22-29.4-.63-44.09C.59,214.31.57,200.2.62,186.09q.06-16.93.44-33.86c.2-8.17,3-15.62,7.25-22.47,6.44-10.42,9.36-21.79,10.35-33.9,1.52-18.79,3.49-37.54,5.05-56.33.49-6,2-11.92.84-18a4.37,4.37,0,0,1,.39-2.84c1.78-2.94.91-6,.46-8.94-.72-4.76,2-8.3,6.77-8.58,1.91-.12,3.75-.92,5.7-.59A60.26,60.26,0,0,1,50.25.54Z"/><path class="cls-2" d="M50.25.54,37.87.6A33.9,33.9,0,0,1,50.25.54Z"/><path class="cls-3" d="M33.2,84.25c9.77,3.76,19.35,1,28.94-.91,4.94-1,4.83-1,5.58,4C69,95.89,69.51,104.56,71.55,113a51.71,51.71,0,0,0,6.71,15.75,57.85,57.85,0,0,1,9.17,32c0,9.24,0,18.48,0,27.75-1.77.27-2.43-.72-3.22-1.28-6-4.26-11.93-8.75-18.76-11.75-12.87-5.66-25.84-5.65-38.84-.5-4.06,1.61-8,3.39-12.07,5.09-2.12.52-1.95-1.15-2-2.29-.17-3.39,0-6.8,0-10.2-.05-7.8,2.44-14.91,5.79-21.76,5.65-11.56,8.8-23.85,11.09-36.42,1.21-6.69,2.76-13.32,2.5-20.21a7.1,7.1,0,0,1,1.33-5Z"/><path class="cls-3" d="M16.22,289.81A131.83,131.83,0,0,0,45.71,295c9.55.69,18.47-1.87,27.16-5.44,3.68-1.51,7.28-3.2,10.92-4.8.94-.41,1.68-.84,2,.8,2.48,12.42,2.74,24.71-1.91,36.73-1.16,3-2.44,6-5.6,7.51-4.59,1.34-9.31.92-13.94.67-6.49-.35-13-.55-19.47-1.71a93,93,0,0,1-12.14-3.17c-4.21-1.35-7.55-4-10.79-6.8a17.8,17.8,0,0,1-6-13.13,122.18,122.18,0,0,1-.55-12.25c.06-1.24-.17-2.56.86-3.57Z"/><path class="cls-4" d="M13.9,183c10.48-5.91,21.69-9.74,33.76-9.74,8.18,0,15.65,3.49,22.85,7.23a58.26,58.26,0,0,1,10,6.56c4.49,3.65,7.23,7.73,6.83,14.17-.67,10.66-.23,21.39-.39,32.09-.23,14.77-.59,29.54-.89,44.31-.05,2.08-.74,3.83-2.71,4.81-11.65,5.79-23.59,10.85-36.91,10.35A113.83,113.83,0,0,1,15.61,287c-1.18-2.78-2.33-5.56-.34-8.47a3.4,3.4,0,0,1,2.8.3,76.31,76.31,0,0,0,30.64,4.93,38.88,38.88,0,0,0,10.54-2.29c6.11-1.94,12.34-3.58,18-6.89,3.61-2.13,5.45-5,5.42-9.28-.07-11.1.26-22.22-.12-33.31-.32-9.32-.94-18.65-1.82-27.94a14,14,0,0,0-8-11.81c-8.3-4.08-16.64-8.09-26-9.33-4.92-.65-9.41,1.05-14,2.34A66,66,0,0,0,18,191.57c-1,.57-2,1.3-3.26,1A9.47,9.47,0,0,1,13.9,183Z"/><path class="cls-5" d="M33.2,84.25a183.7,183.7,0,0,1-11.08,55.39A101.93,101.93,0,0,1,17,151c-2.75,5.44-3.3,11.3-3.58,17.21-.17,3.21,0,6.43,0,9.65,0,.95-.18,2,1.22,2.23a56.17,56.17,0,0,0-9.29,6c-.88.7-1.92,1.54-2-.61-.27-13.13-1.36-26.27,1.2-39.31a37.39,37.39,0,0,1,5.39-13.46c7.28-11.14,10.28-23.59,11.62-36.6.43-4.16,1.14-8.28,1.6-12.44.17-1.56.67-2,2.22-1.53,2.6.8,5.25,1.44,7.88,2.15Z"/><path class="cls-6" d="M65.9,64.68v2c0,6.83,0,6.82-6.61,9a69,69,0,0,1-14.46,3,17.57,17.57,0,0,1-6-.86A89.66,89.66,0,0,1,27.2,74.3a3.91,3.91,0,0,1-2.81-4.21c.16-3.68-.16-7.36.54-11a5.29,5.29,0,0,1,3.22-4.34c8.85-4.29,18-2.86,27.15-1.79,2.76.32,5.43,1.43,8.19,1.86,2.08.31,2.51,1.36,2.43,3.17-.1,2.24,0,4.48,0,6.72Z"/><path class="cls-5" d="M16.22,289.81a121.83,121.83,0,0,0,.67,17.71c.54,6.39,4.73,10.42,9.61,13.86,5.7,4,12.34,5.44,19,6.53,10.85,1.75,21.81,1.81,32.76,1.86-2.14,1.86-4.89,1.71-7.42,2.21-12.15,2.42-24.43,1.14-36.66,1.34a91.76,91.76,0,0,1-17.09-1.69c-5.31-.9-8.49-3.76-10.38-8.61A59.07,59.07,0,0,1,3.6,290.91c.18-1.05.28-2.12.47-3.17s.41-1.87.67-3.05a105.77,105.77,0,0,0,11.48,5.12Z"/><path class="cls-3" d="M62.92,18.15a4.73,4.73,0,0,1,.62,3.66c-.92,3.59-.48,7.18.16,10.7.86,4.81.78,9.68,1.41,14.49.24,1.81-.48,1.71-1.78,1.19a47.32,47.32,0,0,0-26-3.09c-1.87.64-2.76-.45-2.61-2,.68-7.18.14-14.38.55-21.56.1-1.62,1.16-2.36,2.74-2.44,1.36-.06,2.73,0,4.08-.07a26.94,26.94,0,0,1,3.24,0c2.71,0,5.43.35,8.12-.26a22.08,22.08,0,0,1,4.3-.25c1.73.15,3.3-2.16,5.14-.34Z"/><path class="cls-7" d="M15.69,278.77c-1.2,1.56-.55,3.22-.32,4.88.16,1.12.17,2.26.24,3.39a21.16,21.16,0,0,1-7.93-3.44c-2.39-1.6-3-4.15-3.16-6.87-.77-11.55-.47-23.12-.72-34.68-.27-12.52-.63-25-.84-37.57a69.7,69.7,0,0,1,.52-9c.71-6.41,4.7-10.19,10.42-12.48-.06,3.19-.18,6.38,1.21,9.38a1.4,1.4,0,0,1-.55,1.28c-5.76,4.77-7.49,11.07-6.89,18.24,0,1.94-.2,3.9.42,5.8a44.46,44.46,0,0,1,.23,6.73c0,2.6-.36,5.21.37,7.78a64.48,64.48,0,0,1,.23,8.57c0,3.18-.43,6.37.36,9.52.46,4.1.18,8.21.24,12.31a22.75,22.75,0,0,0,.12,5.77,11.89,11.89,0,0,0,4.43,8.17c.7.57,1.68,1.06,1.62,2.23Z"/><path class="cls-5" d="M42.63,19.77c-.57.05-1.15.15-1.73.16-4.76.1-4.66.1-4.81,5-.17,5.69.38,11.41-.51,17.09-.21,1.33-.6,3.1,1.78,3.08-4,1.09-8,2-12.28,4.3.47-5.77.83-11,1.35-16.24.33-3.27,1.26-6.47.37-9.81-.46-1.74.22-3.43.95-5.07s1.48-3.49.66-5.58c-.65-1.67.79-2.15,2.12-2.15,8.23,0,16.47-.82,24.71.3,6.25.86,6.25.78,7.68,7.3-1.81-.71-3.1,1-4.74,1.05a68,68,0,0,0-16.12-.66c-3.05.18-6.13-.17-9.16.43-.38.07.14.62,0,.28,0-.05,0-.08.19-.13,2.75-.79,5.57-.3,8.36-.35a1.13,1.13,0,0,1,1.23,1Z"/><path class="cls-2" d="M62.26,9.35C53.69,8.08,45.05,8.22,36.41,8.14c-2.36,0-4.61.56-6.94.65-2,.09-2.26-.67-1.66-2.45A4.83,4.83,0,0,1,32,3.11c7.27-1,14.59-1.51,21.92-.38,1.82.29,3.67.42,5.43.88,2,.54,3.75,1.48,4.32,3.86.34,1.43.19,2.06-1.4,1.88Z"/><path class="cls-8" d="M43.53,84.24c-4.23.33-9.14-2.14-14.32-3.26a40.53,40.53,0,0,1-3.94-1c-1.95-.61-1.71-2.28-1.32-3.63.54-1.86,1.71-.34,2.49-.1C32,78,37.4,80.6,43.34,80.68c6.42.09,12.37-2.5,18.54-3.86.94-.21,1.85-.54,2.78-.75s2-.1,2,1.33c0,1.09,1.11,2.57-1,3-6.91,1.44-13.67,3.7-22.1,3.84Z"/><path class="cls-9" d="M25.34,52c3.4-2.8,7.26-3.73,11-4.68,9-2.26,17.74-.8,26.16,2.88.91.39,2.46.62,1.95,2-.37,1-1.82.45-2.65.27a114.41,114.41,0,0,0-15.43-2.43,46.56,46.56,0,0,0-18.94,2.13A1.94,1.94,0,0,1,25.34,52Z"/><path class="cls-10" d="M65.31,97.76a54.75,54.75,0,0,0,6.34,23.37c4.8,8.7,9.32,17.51,10.91,27.47a85.5,85.5,0,0,1,.9,21.14c-.11,1.3-.28,2.74-2,2.64-1.54-.1-1.56-1.46-1.58-2.67A124.73,124.73,0,0,0,77,145.48a61.39,61.39,0,0,0-7-17.21c-5.36-9.45-8.61-19.51-8.25-30.52a5.18,5.18,0,0,1,0-.88c.32-1.71.57-4.09,2.56-4s.64,2.4.94,3.69a5.06,5.06,0,0,1,0,1.17Z"/><path class="cls-11" d="M71.64,146.79c-1.77-.07-2.33-1-2.29-2.51s.82-2.34,2.38-2.24a2.38,2.38,0,0,1-.09,4.75Z"/><path class="cls-12" d="M68.85,153.61c-.06,1.63-.6,2.54-1.94,2.37-1.7-.22-2.07-1.64-2.06-3,0-1.17.74-2.17,2-2,1.67.22,2,1.61,2,2.69Z"/><path class="cls-13" d="M7.53,224.47c0-2.32-.09-4.64-.13-6.95-.62-1.94.13-4-.43-5.91-.84-7.91,1.46-14.51,8.14-19.24A67.48,67.48,0,0,1,43.59,182c4.38-.57,8.91.72,13.16,2.51,5.41,2.28,11,4.18,16.2,6.91,5.5,2.88,8.17,7.43,8.65,13.42,1.54,19.4,2.05,38.83,2,58.31,0,7.39-3,11.56-9.35,14.11A140.84,140.84,0,0,1,53,284.11c-6.17,1.41-12.4.72-18.52-.14-6.44-.9-12.85-2.24-18.77-5.2-3.36-2.48-6.49-5.13-6.54-9.81-.62-1.94.14-4-.44-5.91l-.15-12.79c-.65-3.12.19-6.31-.45-9.43,0-2.89-.09-5.79-.14-8.68-.62-2.54.18-5.15-.44-7.68Z"/><path class="cls-14" d="M42.63,19.77c-3.51-.9-7.13-.05-11.11-.72,4.33-1.39,8.44-1,12.44-1.39,4.17-.4,8.34.2,12.51.48.72.05,1.66-.13,1.71,1.06l-4.53.22c-2.76.48-5.56-.19-8.31.36Z"/><path class="cls-5" d="M45.34,19.78c2.74-.7,5.53-.4,8.31-.36-2.74.9-5.53.49-8.31.36Z"/><path class="cls-6" d="M8.11,240.83c1,3.11.38,6.28.45,9.43-.93-3.11-.39-6.28-.45-9.43Z"/><path class="cls-6" d="M7.53,224.47c1,2.51.35,5.11.44,7.68-.93-2.52-.4-5.12-.44-7.68Z"/><path class="cls-6" d="M7,211.61c.94,1.91.36,3.93.43,5.91-.9-1.92-.45-3.93-.43-5.91Z"/><path class="cls-6" d="M8.71,263.05c1,1.91.33,3.94.44,5.91-1-1.91-.43-3.93-.44-5.91Z"/><path class="cls-6" d="M80.57,228.54c-.25,12.65,1,23,.55,33.42a46.36,46.36,0,0,1-.55,6.65,5.65,5.65,0,0,1-3,4.36c-11.23,5.4-22.71,10.16-35.54,9.31-8.68-.58-17.3-1.81-25.24-5.81a9.34,9.34,0,0,1-5-7.08,46.51,46.51,0,0,1-.8-7.5c-.08-9.32-.45-18.64-.67-28-.2-8.12-.78-16.25-1.12-24.38-.37-8.78,4-14.23,11.2-18.12A70.35,70.35,0,0,1,38,184.82a27.34,27.34,0,0,1,17.29,1.35c4.8,2,9.62,4.09,14.49,6,6.27,2.47,9,7.36,9.55,13.7.72,8.29,1.62,16.57,1.27,22.67Z"/><text class="cls-15" transform="translate(29.24 243.61)">P<tspan class="cls-16" x="5.7" y="0">Á</tspan><tspan class="cls-17" x="11.89" y="0">GINA </tspan><tspan class="cls-17"><tspan x="11.18" y="12">NO </tspan><tspan x="-11.6" y="24">ENCONTRA</tspan><tspan class="cls-18" x="37.82" y="24">D</tspan><tspan x="43.8" y="24">A</tspan></tspan></text><text class="cls-19" transform="translate(11.65 227.61)">404</text></g></g></svg>