<svg xmlns="http://www.w3.org/2000/svg" viewBox="0 0 32.86 139.38"><defs><style>.cls-1{fill:#13110c;}.cls-1,.cls-10,.cls-11,.cls-12,.cls-13,.cls-14,.cls-15,.cls-16,.cls-2,.cls-3,.cls-4,.cls-5,.cls-6,.cls-7,.cls-8,.cls-9{fill-rule:evenodd;}.cls-2{fill:#d5d700;}.cls-3{fill:#e1e5ee;}.cls-4{fill:#21602b;}.cls-5{fill:#d43239;}.cls-6{fill:#959824;}.cls-7{fill:#9fa1a5;}.cls-8{fill:#24451f;}.cls-9{fill:#27743c;}.cls-10{fill:#e0e3ec;}.cls-11{fill:#96979b;}.cls-12{fill:#eceb97;}.cls-13{fill:#ebea94;}.cls-14{fill:#ebea92;}.cls-15{fill:#eceb95;}.cls-16{fill:#181610;}</style></defs><g id="Capa_2" data-name="Capa 2"><g id="Capa_1-2" data-name="Capa 1"><path class="cls-1" d="M.26,120.24c0-12-.06-23.94,0-35.91C.34,79,.36,73.64.4,68.3a21.84,21.84,0,0,1,1.88-9.44,43.42,43.42,0,0,0,3.58-15C6.47,36.91,7.28,30,8,23c.34-3.48.56-7,.84-10.44a2.35,2.35,0,0,0-.32-1.42,5.58,5.58,0,0,1-.24-5.09,1.8,1.8,0,0,0,0-1.6,2.56,2.56,0,0,1,2-3.89A28.17,28.17,0,0,1,22.64.81c2.32.58,2.94,1.81,2,4a1.6,1.6,0,0,0,0,1.27,5.79,5.79,0,0,1-.3,5.1,3.37,3.37,0,0,0-.25,2.16l3.42,35.48a27,27,0,0,0,3,9.95,17.1,17.1,0,0,1,1.89,8.06q.1,23.08.28,46.16c0,5.47.19,10.93,0,16.4A7,7,0,0,1,29,135.71c-8.85,5-17.53,4.95-26.08-.76C.57,133.41.07,131.13,0,128.63,0,125.84,0,123,0,120.24Z"/><path class="cls-2" d="M11.5,40.32c4.15-.1,8.3-.17,12.45-.34,1.14,0,1.49.27,1.65,1.43.45,3.21.51,6.47,1.12,9.66a32.48,32.48,0,0,0,3,8.58,14.36,14.36,0,0,1,1.61,6.87c-.06,3.29,0,6.58.08,9.87,0,1.16-.29,1.82-1.61,2a55.77,55.77,0,0,1-8.34.79,94.62,94.62,0,0,1-15.87-.69,1.33,1.33,0,0,1-.36-1c0-2.38-.11-4.76.12-7.14s0-4.68.57-7a7.33,7.33,0,0,1,.48-1.78c2.53-5.1,3.31-10.64,4-16.19.15-1.27.36-2.52.52-3.79a1.87,1.87,0,0,1,.6-1.31Z"/><path class="cls-3" d="M5.09,106.94c7.58,1.18,15.18.43,22.78.29,1,0,1.55-.26,1.47-1.48-.12-1.8,0-3.62,0-5.43,0-1.39,1-.84,1.66-1,.85-.2.65.51.65.94,0,7.58,0,15.15,0,22.72a1.21,1.21,0,0,1-.82,1.3A20.6,20.6,0,0,1,22.16,126c-4.32,0-8.64,0-13,0a11.2,11.2,0,0,1-3.39-.56c-.6-.31-.62-.92-.73-1.47a41,41,0,0,1-.31-5.75c-.13-3.27-.43-6.53-.33-9.81,0-.56-.17-1.26.65-1.5Z"/><path class="cls-4" d="M5.56,79.55A141.32,141.32,0,0,0,23,80c2.45-.08,4.89-.36,7.32-.66.94-.11,1.14.17,1.14,1q0,7.09.05,14.18c0,1,.13,2,.19,2.94.08,1.26-1,.79-1.59,1s-.84-.17-.89-.78c-.07-.76-.39-1.18-1.32-1.21-3-.07-6.06-.29-9.09-.43-4-.19-8-.35-12-.52a.83.83,0,0,0-.35-.1c-1.91-.1-1.95-.13-1.83-2,.14-2.22,0-4.44.08-6.66.07-2,.2-4,.44-6a1.78,1.78,0,0,1,.43-1.25Z"/><path class="cls-5" d="M18.73,106.77a75.59,75.59,0,0,1-12.68-.52c-1-.12-1.48-.44-1.43-1.59.11-2.25,0-4.52,0-6.78,0-1,.27-1.6,1.58-1.53,7.08.39,14.18.68,21.28,1,.58,0,.78.18.77.77,0,2.47,0,4.93,0,7.4,0,.67-.27.83-.86.86-3,.17-6,.42-8.71.41Z"/><path class="cls-6" d="M31.71,129.44a6,6,0,0,1-2.85,5,21.75,21.75,0,0,1-25.29-.32,4.8,4.8,0,0,1-2.23-4c0-1.8-.34-3.6-.25-5.61a33.16,33.16,0,0,0,5,1.94,5,5,0,0,0,4.22,4.61,29.59,29.59,0,0,0,10,.59c1.46-.18,2.94-.1,4.4-.35a24.21,24.21,0,0,0,5.1-1.39,2.93,2.93,0,0,1,1.87-.46Z"/><path class="cls-4" d="M13,26.23c3.36,0,6.73,0,10.1,0,.73,0,1,.21,1,1,.34,3.62.77,7.24,1.18,10.85.07.66,0,1-.86,1.09-3.15.18-6.31.23-9.47.22a17,17,0,0,1-2.94.11c-.49,0-.66-.22-.67-.66a8.8,8.8,0,0,1,.08-1.85,93.15,93.15,0,0,0,1.15-9.42,1.85,1.85,0,0,1,.4-1.26Z"/><path class="cls-6" d="M11.5,40.32c-.58,4-1.14,7.93-1.75,11.89a29.28,29.28,0,0,1-2.58,8.44,14.23,14.23,0,0,0-1.3,5.71,117.79,117.79,0,0,0-.3,12.18s-.08,0-.12,0c-3.88-.44-3.91-.44-3.87-4.3a104.55,104.55,0,0,1,.24-10.47,9.4,9.4,0,0,1,1.05-3.25A40.21,40.21,0,0,0,7,44.19c0-.45.08-.9.15-1.34.38-2.52.38-2.52,3-2.53Z"/><path class="cls-2" d="M24.08,8.18a3.91,3.91,0,0,1-.49,2.23c-.93,1.82-.49,3.78-.39,5.69s.23,3.76.35,5.64a11.88,11.88,0,0,1-3.15.13c-1.93,0-3.85,0-5.78,0-1.37,0-1.62-.22-1.46-1.54a27.57,27.57,0,0,0-.11-6.61c-.07-.68-.48-1.33-.2-2,.4-.48,1-.39,1.49-.39,1.56,0,3.11,0,4.65,0-1.78-.1-3.55,0-5.31,0-1.2,0-1.76-.48-1.89-1.5a1.94,1.94,0,0,1,1.48-2.45,3.58,3.58,0,0,1,1.21-.17c2.82.3,5.67.07,8.47.63a2.14,2.14,0,0,1,1.13.44Z"/><path class="cls-2" d="M31.71,129.44a22.21,22.21,0,0,1-8.92,2.43,62.65,62.65,0,0,1-7,.29,31.65,31.65,0,0,1-6.05-.88,5.6,5.6,0,0,1-3.67-3,1.44,1.44,0,0,1,0-1.81,58.93,58.93,0,0,0,25.57-1.26,13.83,13.83,0,0,1,0,4.26Z"/><path class="cls-6" d="M13,11.63a22.38,22.38,0,0,1,.51,9c-.12.84.18,1.14,1.07,1.13,3-.05,6,0,9,0-.1.23-.32.23-.52.23-4.32,0-8.63-.09-12.95-.12-.61,0-.77-.24-.73-.81.19-2.75.32-5.5.54-8.24a3,3,0,0,0-.41-2C8.06,8.67,9,6.7,9.91,4.75c.33-.69,1.08-.35,1.57-.24a4.59,4.59,0,0,0,2.15-.13c2-.47,4-.06,6,.18a5,5,0,0,0,.85.11c2.56-.17,3.64.87,3.6,3.51-2.84-.37-5.71-.45-8.57-.69a8,8,0,0,0-2.68.23c-1,.27-.64,1.33-.7,2a1.09,1.09,0,0,0,1.24,1.19c2-.05,4,0,6.05,0,.33,0,.76-.08,1,.09s0,.36-.27.37c-1.3-.12-2.58.08-3.88,0a29.88,29.88,0,0,1-4-.16c-.17,0-.09.19-.08,0,0,0,0,0,.1,0,.26.08.71-.2.73.36Z"/><path class="cls-7" d="M5.09,106.94c-.53,1.72-.24,3.49-.21,5.23,0,3,.28,6,.41,9.08a12.55,12.55,0,0,0,.52,4.22c-1-.36-2.07-.75-3.12-1.09A2.2,2.2,0,0,1,1.06,122c.11-6.75.18-13.49.26-20.24,0-.62,0-1.23,0-1.85s-.06-1.17.78-1c.66.14,1.69-.29,1.7,1,0,1.73.05,3.45.07,5.18,0,.89.26,1.61,1.22,1.87Z"/><path class="cls-8" d="M5.56,79.55C5,84.25,5.23,89,4.88,93.7c-.12,1.63.87,1.68,1.91,1.89a4.58,4.58,0,0,1-.74,0c-1.31-.21-2.19.06-2.27,1.65-.06,1.12-1,.79-1.73.81-.88,0-.68-.64-.69-1.14,0-4-.09-7.9,0-11.84.06-1.76.19-3.52.19-5.28,0-.52.2-.84.72-.73a17.7,17.7,0,0,1,3.24.47Z"/><path class="cls-8" d="M13,26.23a66.71,66.71,0,0,1-1.16,10.45c-.5,2.44-.38,2.61,2,2.62H15c-1.43.5-2.91.19-4.36.22-3,.06-3.13,0-2.79-3,.36-3.19.78-6.38,1-9.6,0-.63.38-.71.89-.71,1.1,0,2.21,0,3.32,0Z"/><path class="cls-9" d="M15.86.79a28.9,28.9,0,0,1,6.4.74,2.35,2.35,0,0,1,1.55.92A1.2,1.2,0,0,1,24,3.72c-.24.44-.66.1-1,.06a115.22,115.22,0,0,0-13.4-.26c-1,0-1-.23-.64-.93a2,2,0,0,1,1.57-1.26c1.88-.13,3.71-.72,5.3-.54Z"/><path class="cls-10" d="M23.57,23c.37,2.34.37,2.3-2,2.35-2.78.05-5.55.08-8.33-.14a1.83,1.83,0,0,1-.3-1.63c.07-.39.24-.71.71-.7,3.32.06,6.64-.18,10,.12Z"/><path class="cls-11" d="M23.57,23c-2.91,0-5.83.08-8.75,0-1.28,0-1.82.33-1.62,1.62a4.14,4.14,0,0,1,0,.61c-1.1,0-2.21,0-3.32,0s-.73-.74-.78-1.29,0-1.09.88-1.09c4.31,0,8.63,0,12.94,0,.23,0,.51-.08.64.22Z"/><path class="cls-12" d="M29.74,71.6a9.48,9.48,0,0,1-.19,2.77c-.18.55-.29,1.2-1,1.21s-1-.68-1.13-1.27A11.39,11.39,0,0,1,27.07,72a38.43,38.43,0,0,0-2.39-12.59,35.91,35.91,0,0,1-2.3-14.48c.06-.71-.16-1.86.9-1.83.89,0,.76,1.08.81,1.81A48.29,48.29,0,0,0,25.65,53c1,4.27,3,8.25,3.68,12.6a33,33,0,0,1,.41,6Z"/><path class="cls-13" d="M25.57,72.4c-.13.69-.37,1.28-1.3,1.25s-1-.56-1-1.24.37-1.26,1.18-1.25,1.07.47,1.08,1.24Z"/><path class="cls-14" d="M24.59,66.41a1,1,0,0,1-1,1.21,1.08,1.08,0,0,1-1.14-1.16,1.1,1.1,0,0,1,1.18-1.25c.82,0,1,.47,1,1.2Z"/><path class="cls-15" d="M22.61,18c-.09.8.38,2-.77,2.17s-1.12-1.15-1.31-2a5.53,5.53,0,0,1,0-2.91c.15-.49.45-.94,1.05-.83a1,1,0,0,1,.75,1A15.76,15.76,0,0,1,22.61,18Z"/><path class="cls-16" d="M13,11.63c-.43-.35-1-.08-1.48-.46,2.88.19,5.76-.35,8.62.2a34.82,34.82,0,0,1-7.14.26Z"/></g></g></svg>