<svg xmlns="http://www.w3.org/2000/svg" viewBox="0 0 35.39 129.47"><defs><style>.cls-1{fill:#13120d;}.cls-1,.cls-10,.cls-2,.cls-3,.cls-4,.cls-5,.cls-6,.cls-7,.cls-8,.cls-9{fill-rule:evenodd;}.cls-2{fill:#91ae25;}.cls-3{fill:#677d2a;}.cls-4{fill:#4b6d3f;}.cls-5{fill:#394d2e;}.cls-6{fill:#407f36;}.cls-7{fill:#161510;}.cls-8{fill:#cfda99;}.cls-9{fill:#cdd995;}.cls-10{fill:#151410;}</style></defs><g id="Capa_2" data-name="Capa 2"><g id="Capa_1-2" data-name="Capa 1"><path class="cls-1" d="M.1,113.68c0-8.14,0-16.28,0-24.43,0-5.34-.13-10.69-.09-16C0,67.58.59,62,1.12,56.38a8.59,8.59,0,0,1,1.75-4.56c2.23-2.78,3-6,3.43-9.45C7,37.21,7.82,32.06,8.62,26.91c.59-3.86.82-7.75,1.13-11.64.1-1.23.18-2.46.25-3.69S10.25,9.12,9.43,8a1.43,1.43,0,0,1-.16-1.31c.52-1.23.2-2.47.19-3.71S10.13.85,11.73.56A27.67,27.67,0,0,1,21.42.33,25.69,25.69,0,0,1,24.56,1,2.39,2.39,0,0,1,26,4.67c-.11.22-.34.44-.32.65.34,3.35-1,6.6-.31,10s.69,6.78,1,10.18c.61,6.55,2.2,13,2.9,19.5a10.12,10.12,0,0,0,2,5.23,15.46,15.46,0,0,1,3.1,8.29c.6,5.86.71,11.73.87,17.61.25,9.5,0,19-.17,28.51-.07,5-.27,10-.4,15,0,1.39,0,2.79-.08,4.18-.14,3.34-2,5.08-5.28,5.25-5.46.26-10.93.33-16.4.32a69.78,69.78,0,0,1-7.37-.33c-3.14-.34-4.87-2-4.95-5.21-.09-3.41,0-6.82,0-10.24Z"/><path class="cls-2" d="M12.71,21.71c3.78.13,7.55.28,11.33.36.79,0,.85.48.93,1q.78,5.42,1.55,10.85c.6,4.18,1.16,8.37,1.78,12.56a8.28,8.28,0,0,0,1.83,3.86,17,17,0,0,1,3.37,9.84c.91,15,.78,29.93.63,44.89-.05,5-.31,9.94-.48,14.9a1.57,1.57,0,0,0-.09.48c-.1.8.34,1.73-.33,2.37A6.51,6.51,0,0,1,30,124.71a25.76,25.76,0,0,1-5.26.58c-3.36-.08-6.73-.11-10.09-.16-4.4,0-9.38-4.2-9.42-9.3a75.16,75.16,0,0,1,.22-8.49c0-.48,0-1,.54-1.29a1,1,0,0,1,.89.34c2.49,2.45,5.72,3,9,3.31a33.93,33.93,0,0,0,8.1-.46c3.66-.52,5.33-3,6.36-6.09a14.86,14.86,0,0,0,.62-4.62c0-7.85,0-15.71,0-23.56a15,15,0,0,0-1.59-7,7.2,7.2,0,0,0-4.78-3.76A20.72,20.72,0,0,0,12,64.46a13.8,13.8,0,0,0-3.58,1.63,1.54,1.54,0,0,1-1.25.4c-.49-.28-.4-.75-.37-1.2.33-4.58.69-9.17,1.17-13.74C8.26,48.7,9,45.91,9.6,43.09c.78-3.87,1-7.81,1.51-11.72.34-2.77.71-5.54,1.07-8.31a2.16,2.16,0,0,1,.53-1.35Z"/><path class="cls-3" d="M6,106.15c-.6,1.42-.4,2.94-.44,4.41a36,36,0,0,0,.15,6.64,6.73,6.73,0,0,0,1.14,3.06,9.81,9.81,0,0,0,7.89,4.5c3.33.15,6.65.08,10,.17a29.78,29.78,0,0,0,5.24-.56c1.24-.18,2.14-1.15,3.17-1.82.36-.23.24-.66.29-1,.08-.51-.17-1.07.21-1.55a21.91,21.91,0,0,1-.26,4.79A3.33,3.33,0,0,1,30,127.86c-7.31.27-14.63.41-21.94.24a17.11,17.11,0,0,1-3.42-.42,3.32,3.32,0,0,1-2.79-3.41c-.22-3-.16-6.08-.3-9.12-.29-6.49-.05-13-.25-19.48C1,87.45,1,79.22,1.16,71c.08-4.8.58-9.59,1-14.37a8.24,8.24,0,0,1,1.75-4.42c2.33-3,3.21-6.39,3.64-10,.7-5.86,1.64-11.69,2.62-17.51,0-.28.06-.57.08-.86.21-2.24.21-2.24,2.48-2.09-.34,2.76-.69,5.51-1,8.26s-.73,5.26-.92,7.91a58,58,0,0,1-1.4,8.2,79.94,79.94,0,0,0-1.62,12.5c-.15,2.36-.44,4.71-.68,7.07,0,.3,0,.57.24.77,0,.57-.35.9-.67,1.26a9,9,0,0,0-2.49,6.48c.1,7.77,0,15.54.05,23.31,0,2.81.25,5.6,1.77,8.09a.68.68,0,0,1,.07.59Z"/><path class="cls-4" d="M25,6.64a1.42,1.42,0,0,1-.18,1.06c-.95,1.35-.81,2.87-.68,4.4.21,2.57.41,5.14.65,7.71.08.88-.14,1.2-1.13,1.19-3.57,0-7.14-.18-10.71-.33a1.34,1.34,0,0,1-.31-1.15,36.32,36.32,0,0,0-.27-10.2,2.68,2.68,0,0,1,.12-1.58,1.57,1.57,0,0,1,1.36-.69,23.27,23.27,0,0,1,7.75.44c-.17-.31-.68-.39-.53-.85a4.45,4.45,0,0,1,3.93,0Z"/><path class="cls-5" d="M25,6.64c-1.3.08-2.62-.24-3.9.19-.58.45-1.2.13-1.75,0A12.19,12.19,0,0,0,13.54,7c-.32.07-.91-.08-.85.59-.22,1.82.55,3.54.53,5.36,0,2.57,0,5.14-.26,7.71-2.54,0-2.63.66-2.33-2.5.23-2.53.41-5.06.57-7.59a4.41,4.41,0,0,0-.7-2.81c-.69-1.06,0-1.83.49-2.68s1.2-.75,1.95-.64c.28,0,.6.24.82.16,2.79-1.06,5.61,0,8.42-.16,1.9-.13,2.38.4,2.83,2.19Z"/><path class="cls-6" d="M24.88,3.9a66.5,66.5,0,0,0-9.71-.46c-1.44,0-2.88.11-4.31.22-.78.07-.8-.28-.6-.85a2.27,2.27,0,0,1,1.91-1.56,29.39,29.39,0,0,1,11.48.26,2,2,0,0,1,1.68,1.58c.14.58.13.89-.45.81Z"/><path class="cls-7" d="M6,106.15c-1.85-2.18-2.14-4.86-2.17-7.53-.1-8.51-.08-17-.1-25.53a8.63,8.63,0,0,1,2.43-5.52c.34-.4.74-.77,1.11-1.15C13,62.6,19.05,62.17,25.43,64.1A7.17,7.17,0,0,1,30,68.51a14.85,14.85,0,0,1,1.23,5.63q.09,12.58,0,25.17a12.55,12.55,0,0,1-1.68,6.48,7.44,7.44,0,0,1-5.8,3.85,32.75,32.75,0,0,1-10.91,0A11.94,11.94,0,0,1,6,106.15Z"/><path class="cls-8" d="M30,55.73a1.38,1.38,0,0,1-1.46,1.48,2.13,2.13,0,0,1-2-2c0-.85.33-1.55,1.31-1.63A2.25,2.25,0,0,1,30,55.73Z"/><path class="cls-9" d="M24.61,29.82c-.2.7.32,1.72-.49,1.81s-.61-1-.71-1.55c-.26-1.49,0-3-.33-4.53-.07-.33,0-.73.4-.78s.55.3.59.64c.19,1.5.37,3,.54,4.41Z"/><path class="cls-10" d="M12.69,7.6c-.29-.07-.65.15-1-.35a14.2,14.2,0,0,1,9.38-.42c.3.12.61.22.91.35a1.64,1.64,0,0,1,.7.52c-3.36-.26-6.69-.87-10-.1Z"/><path class="cls-4" d="M7,68.1c1.68-2.22,4.2-3,6.7-3.6a20.31,20.31,0,0,1,10.58.15c2.64.74,5.34,4.07,5.74,6.79A81.21,81.21,0,0,1,30.45,83q0,7.77,0,15.55a13.57,13.57,0,0,1-.54,4c-1.08,3.43-2.92,6-6.95,6.28s-7.79.63-11.6-.5c-2.7-.8-4.95-2.21-5.82-5.14-.19-5.45-.26-10.91.06-16.36.12-2.13.2-4.27.26-6.41.1-3.45.46-6.88.57-10.33a5,5,0,0,1,.59-2Z"/><path class="cls-5" d="M7,68.1c-.23,3-.48,6-.69,9C6.18,79,6.18,81,6.08,82.88,5.77,88.44,5.73,94,5.75,99.59a10.7,10.7,0,0,1-.23,3.61c-.8-1.07-.38-2.38-.66-3.56a15.65,15.65,0,0,1-.28-3.42c0-7.56,0-15.12,0-22.68A7.69,7.69,0,0,1,7,68.1Z"/></g></g></svg>