<svg xmlns="http://www.w3.org/2000/svg" viewBox="0 0 37.25 145.86"><defs><style>.cls-1{fill:#14120d;}.cls-1,.cls-10,.cls-11,.cls-12,.cls-13,.cls-14,.cls-2,.cls-3,.cls-4,.cls-5,.cls-6,.cls-7,.cls-8,.cls-9{fill-rule:evenodd;}.cls-2{fill:#1e1e1b;}.cls-3{fill:#f2ac00;}.cls-4{fill:#9b906e;}.cls-5{fill:#af7a19;}.cls-6{fill:#20201e;}.cls-7{fill:#6f654d;}.cls-8{fill:#968b6a;}.cls-9{fill:#958b6b;}.cls-10{fill:#fbd993;}.cls-11{fill:#fbd891;}.cls-12{fill:#fad68a;}.cls-13{fill:#13120d;}.cls-14{fill:#191611;}</style></defs><g id="Capa_2" data-name="Capa 2"><g id="Capa_1-2" data-name="Capa 1"><path class="cls-1" d="M20.72.23A19.56,19.56,0,0,1,26,1.36a2.24,2.24,0,0,1,1,3.17,3.77,3.77,0,0,0-.08,3.34c.6,1.53.09,3.25.25,4.89,1,9.41,1.12,18.88,2.23,28.28.65,5.47,1.45,10.84,4.58,15.52a18.3,18.3,0,0,1,2.35,6.33,33.4,33.4,0,0,1,.61,7.93c-.11,3.33-.06,6.68-.07,10,0,8,0,16.06-.06,24.1,0,4.81-.2,9.62-.3,14.44a79.53,79.53,0,0,0,.68,10.23,23.4,23.4,0,0,1-2.5,12.7c-.91,1.94-2.65,2.56-4.57,2.79a97.36,97.36,0,0,1-18.85.52,36.47,36.47,0,0,1-4.42-.51,6.44,6.44,0,0,1-5-4.44A26.8,26.8,0,0,1,.45,126.26c.52-2.64.22-5.31.21-8,0-6.38-.09-12.77-.26-19.14C.25,93,.24,86.91.26,80.78q0-7.35.18-14.7a20,20,0,0,1,3-9.75A33.55,33.55,0,0,0,7.69,41.61c.63-8.15,1.45-16.29,2.09-24.45.2-2.59.81-5.17.34-7.81a2.13,2.13,0,0,1,.16-1.23c.74-1.27.38-2.58.19-3.88-.29-2.07.83-3.6,2.8-3.73A10.25,10.25,0,0,1,15.62.26a23.5,23.5,0,0,1,5.1,0Z"/><path class="cls-2" d="M20.72.23l-5.1,0a13.46,13.46,0,0,1,5.1,0Z"/><path class="cls-3" d="M13.69,36.57c4,1.63,8,.46,11.94-.39,2-.44,2-.44,2.3,1.73.52,3.72.74,7.48,1.58,11.14a23.34,23.34,0,0,0,2.76,6.84A26,26,0,0,1,36.06,69.8c0,4,0,8,0,12-.73.12-1-.31-1.33-.55A44.81,44.81,0,0,0,27,76.19,19.12,19.12,0,0,0,11,76c-1.67.7-3.31,1.47-5,2.21-.88.23-.81-.5-.83-1-.07-1.48,0-3,0-4.43a22,22,0,0,1,2.39-9.45A62.1,62.1,0,0,0,12.11,47.5a42.29,42.29,0,0,0,1-8.77,3.18,3.18,0,0,1,.55-2.16Z"/><path class="cls-3" d="M6.69,125.81a52,52,0,0,0,12.16,2.24,23.53,23.53,0,0,0,11.2-2.36c1.52-.66,3-1.39,4.51-2.09.38-.18.69-.36.83.35,1,5.39,1.13,10.73-.8,16a5.27,5.27,0,0,1-2.3,3.25,16.15,16.15,0,0,1-5.75.3,62,62,0,0,1-8-.75,36.8,36.8,0,0,1-5-1.37,12.83,12.83,0,0,1-4.45-3,7.92,7.92,0,0,1-2.49-5.71c-.09-1.77-.3-3.53-.22-5.31,0-.54-.07-1.11.35-1.55Z"/><path class="cls-4" d="M5.73,79.44a27.17,27.17,0,0,1,13.93-4.23c3.37,0,6.45,1.51,9.42,3.14a25,25,0,0,1,4.12,2.84A7,7,0,0,1,36,87.34c-.28,4.63-.09,9.29-.16,13.94-.1,6.41-.24,12.82-.37,19.23a2.2,2.2,0,0,1-1.11,2.09c-4.81,2.51-9.73,4.71-15.23,4.49a44.37,44.37,0,0,1-12.7-2.49c-.49-1.2-1-2.41-.14-3.67a1.34,1.34,0,0,1,1.15.13,30.13,30.13,0,0,0,12.64,2.14,15.14,15.14,0,0,0,4.34-1,33.64,33.64,0,0,0,7.41-3,4.34,4.34,0,0,0,2.24-4c0-4.83.11-9.65,0-14.47-.13-4-.39-8.09-.75-12.12A6.09,6.09,0,0,0,30,83.47c-3.42-1.77-6.86-3.51-10.71-4-2-.28-3.89.46-5.77,1a26.26,26.26,0,0,0-6.08,2.72,1.67,1.67,0,0,1-1.35.42,4.3,4.3,0,0,1-.34-4.14Z"/><path class="cls-5" d="M13.69,36.57a83.28,83.28,0,0,1-4.57,24A44.69,44.69,0,0,1,7,65.55,19,19,0,0,0,5.51,73c-.06,1.39,0,2.79,0,4.18,0,.42-.07.89.51,1a22.4,22.4,0,0,0-3.83,2.59c-.37.3-.8.66-.81-.27-.12-5.7-.57-11.4.49-17.06a16.93,16.93,0,0,1,2.22-5.85c3-4.83,4.24-10.24,4.8-15.89.17-1.8.47-3.59.66-5.39.07-.68.27-.88.91-.67,1.08.35,2.17.63,3.25.93Z"/><path class="cls-6" d="M27.18,28.08V29c0,3,0,3-2.73,3.92a27.29,27.29,0,0,1-6,1.32A6.88,6.88,0,0,1,16,33.83a34.12,34.12,0,0,1-4.8-1.58,1.68,1.68,0,0,1-1.16-1.82,33.33,33.33,0,0,1,.22-4.79,2.3,2.3,0,0,1,1.33-1.88C15.26,21.89,19,22.51,22.8,23c1.15.14,2.25.62,3.39.8.85.14,1,.59,1,1.38,0,1,0,1.95,0,2.92Z"/><path class="cls-5" d="M6.69,125.81A54.88,54.88,0,0,0,7,133.5c.22,2.77,2,4.52,4,6a17.55,17.55,0,0,0,7.85,2.84,82.46,82.46,0,0,0,13.51.8c-.89.81-2,.75-3.06,1-5,1-10.08.5-15.12.59a36.37,36.37,0,0,1-7-.74,5.26,5.26,0,0,1-4.28-3.74,27,27,0,0,1-1.3-13.93c.08-.46.12-.92.2-1.38s.17-.81.27-1.32a45,45,0,0,0,4.74,2.22Z"/><path class="cls-3" d="M26,7.88a2.17,2.17,0,0,1,.25,1.59,11.33,11.33,0,0,0,.07,4.64c.36,2.09.32,4.2.58,6.29.1.79-.2.74-.73.52a18.61,18.61,0,0,0-10.71-1.34c-.77.27-1.14-.2-1.08-.87.28-3.12.06-6.24.23-9.36a1.05,1.05,0,0,1,1.13-1.06c.56,0,1.12,0,1.68,0a10,10,0,0,1,1.34,0,13.83,13.83,0,0,0,3.34-.12A8.19,8.19,0,0,1,23.83,8c.71.06,1.36-.94,2.12-.15Z"/><path class="cls-7" d="M6.47,121c-.5.67-.22,1.39-.13,2.11.06.49.07,1,.1,1.47a8.31,8.31,0,0,1-3.27-1.49,3.62,3.62,0,0,1-1.31-3c-.31-5-.19-10-.29-15-.12-5.44-.26-10.88-.35-16.31a32.07,32.07,0,0,1,.21-3.92,6.35,6.35,0,0,1,4.3-5.41,9.53,9.53,0,0,0,.5,4.07.61.61,0,0,1-.22.55C3.63,86.14,2.92,88.87,3.16,92a8.85,8.85,0,0,0,.18,2.52,20.36,20.36,0,0,1,.09,2.92,12.75,12.75,0,0,0,.15,3.38,28.84,28.84,0,0,1,.1,3.72,17.29,17.29,0,0,0,.15,4.13c.19,1.78.07,3.57.1,5.35a10,10,0,0,0,0,2.5,5.24,5.24,0,0,0,1.82,3.55c.29.25.7.46.67,1Z"/><path class="cls-5" d="M17.58,8.58a5.69,5.69,0,0,1-.71.07c-2,0-1.93,0-2,2.17a63.36,63.36,0,0,1-.22,7.42c-.08.58-.24,1.34.74,1.34a21.53,21.53,0,0,0-5.07,1.87c.2-2.51.34-4.79.56-7.06a12.13,12.13,0,0,0,.15-4.25,3.48,3.48,0,0,1,.39-2.2,3.09,3.09,0,0,0,.28-2.43c-.27-.72.32-.93.87-.93,3.4,0,6.79-.36,10.19.13,2.58.37,2.58.34,3.17,3.17-.75-.31-1.28.42-1.95.45a27,27,0,0,0-6.65-.28,28.07,28.07,0,0,0-3.78.18c-.16,0,.06.27,0,.13s0,0,.08-.06a12.39,12.39,0,0,1,3.44-.15.47.47,0,0,1,.51.43Z"/><path class="cls-2" d="M25.68,4.06A74.5,74.5,0,0,0,15,3.53c-1,0-1.91.24-2.86.29s-.94-.29-.69-1.07a2,2,0,0,1,1.72-1.4,29.16,29.16,0,0,1,9-.16,20.53,20.53,0,0,1,2.24.38,2.18,2.18,0,0,1,1.78,1.67c.14.62.08.9-.57.82Z"/><path class="cls-8" d="M18,36.57c-1.74.14-3.77-.93-5.9-1.41-.55-.13-1.1-.26-1.63-.43-.8-.27-.7-1-.54-1.58.22-.81.7-.15,1,0,2.29.75,4.51,1.89,7,1.92,2.65,0,5.11-1.08,7.65-1.67.39-.09.76-.24,1.15-.33s.82,0,.8.58c0,.47.46,1.11-.4,1.3-2.85.63-5.64,1.61-9.12,1.67Z"/><path class="cls-9" d="M10.45,22.58a10.54,10.54,0,0,1,4.55-2A15.65,15.65,0,0,1,25.79,21.8c.38.17,1,.27.81.86-.15.43-.75.2-1.1.12a43.94,43.94,0,0,0-6.36-1.05,18.18,18.18,0,0,0-7.81.92.78.78,0,0,1-.88-.07Z"/><path class="cls-10" d="M26.93,42.44a24.71,24.71,0,0,0,2.62,10.14c2,3.78,3.84,7.61,4.5,11.93a39.09,39.09,0,0,1,.37,9.17c-.05.57-.12,1.2-.82,1.15s-.65-.63-.66-1.16a56.23,56.23,0,0,0-1.19-10.52,27.27,27.27,0,0,0-2.88-7.47,25.87,25.87,0,0,1-3.4-13.25c0-.12,0-.25,0-.38.13-.74.24-1.78,1.06-1.72s.26,1,.39,1.6a2.9,2.9,0,0,1,0,.51Z"/><path class="cls-11" d="M29.55,63.72c-.74,0-1-.44-.95-1.09s.34-1,1-1a1,1,0,0,1,.94,1.08.94.94,0,0,1-1,1Z"/><path class="cls-12" d="M28.39,66.68c0,.71-.24,1.11-.8,1s-.85-.71-.85-1.32.31-.94.83-.87c.69.09.82.7.82,1.16Z"/><path class="cls-13" d="M3.11,97.44l-.06-3c-.26-.85.06-1.73-.17-2.57-.35-3.43.6-6.3,3.35-8.35A27,27,0,0,1,18,79a10.18,10.18,0,0,1,5.42,1.09c2.23,1,4.53,1.81,6.68,3a6.77,6.77,0,0,1,3.57,5.82c.64,8.43.85,16.86.83,25.32,0,3.21-1.25,5-3.86,6.12a55,55,0,0,1-8.77,3,19.64,19.64,0,0,1-7.64-.06A23.88,23.88,0,0,1,6.47,121c-1.38-1.08-2.67-2.23-2.7-4.26-.25-.84.06-1.73-.18-2.57l-.06-5.55c-.27-1.36.08-2.74-.18-4.09l-.06-3.77c-.26-1.1.07-2.24-.18-3.34Z"/><path class="cls-14" d="M17.58,8.58c-1.45-.39-2.94,0-4.58-.31a21.14,21.14,0,0,1,5.13-.6,28.76,28.76,0,0,1,5.16.21c.3,0,.68-.06.71.45l-1.87.1c-1.14.21-2.3-.08-3.43.16Z"/><path class="cls-5" d="M18.7,8.59a12,12,0,0,1,3.43-.16,9,9,0,0,1-3.43.16Z"/><path class="cls-6" d="M3.35,104.55a14.74,14.74,0,0,1,.18,4.09,15.58,15.58,0,0,1-.18-4.09Z"/><path class="cls-6" d="M3.11,97.44c.43,1.09.14,2.22.18,3.34a9.87,9.87,0,0,1-.18-3.34Z"/><path class="cls-6" d="M2.88,91.86a6.36,6.36,0,0,1,.17,2.57,5.88,5.88,0,0,1-.17-2.57Z"/><path class="cls-6" d="M3.59,114.19a6.19,6.19,0,0,1,.18,2.57,5.88,5.88,0,0,1-.18-2.57Z"/><path class="cls-6" d="M33.23,99.21c-.11,5.49.39,10,.22,14.51a21.63,21.63,0,0,1-.22,2.89A2.47,2.47,0,0,1,32,118.5c-4.63,2.34-9.36,4.41-14.66,4A25.54,25.54,0,0,1,6.91,120a4.05,4.05,0,0,1-2.08-3.08,21.82,21.82,0,0,1-.33-3.25c0-4-.18-8.09-.27-12.14C4.15,98,3.9,94.5,3.76,91c-.15-3.8,1.65-6.17,4.62-7.86a28.46,28.46,0,0,1,7.28-2.87,10.73,10.73,0,0,1,7.13.59c2,.88,4,1.77,6,2.6,2.59,1.07,3.72,3.2,3.95,6a84.94,84.94,0,0,1,.52,9.84Z"/></g></g></svg>