<svg xmlns="http://www.w3.org/2000/svg" viewBox="0 0 36.81 141.59"><defs><style>.cls-1{fill:#13110c;}.cls-1,.cls-10,.cls-11,.cls-12,.cls-13,.cls-14,.cls-15,.cls-16,.cls-17,.cls-2,.cls-3,.cls-4,.cls-5,.cls-6,.cls-7,.cls-8,.cls-9{fill-rule:evenodd;}.cls-2{fill:#d88e0b;}.cls-3{fill:#b12633;}.cls-4{fill:#edede9;}.cls-5{fill:#eeeeea;}.cls-6{fill:#9b651a;}.cls-7{fill:#aaa8a2;}.cls-8{fill:#7f2227;}.cls-9{fill:#c28814;}.cls-10{fill:#a4242f;}.cls-11{fill:#aaa7a2;}.cls-12{fill:#a9a7a1;}.cls-13{fill:#8b611a;}.cls-14{fill:#eecc93;}.cls-15{fill:#edca8f;}.cls-16{fill:#edc88d;}.cls-17{fill:#1c1813;}</style></defs><g id="Capa_2" data-name="Capa 2"><g id="Capa_1-2" data-name="Capa 1"><path class="cls-1" d="M36.5,97.47c0,4,0,8.06,0,12.1q-.06,9.75-.21,19.5a18.76,18.76,0,0,1-1.08,5.78c-1.08,3.15-3.59,4.73-6.53,5.45a41.25,41.25,0,0,1-21.3-.22c-4-1.12-6.08-3.93-6.62-8a56.78,56.78,0,0,1-.44-6.89c0-6.34,0-12.67-.09-19C0,92.66,0,79.13,0,65.6a15.41,15.41,0,0,1,3-9.47c3.42-4.56,4.8-9.74,5.22-15.36C8.64,34.92,9.5,29.1,10,23.25c.31-3.46.74-6.93,0-10.42a14.07,14.07,0,0,1,.53-6.46,2.06,2.06,0,0,0-.26-1.72A2.49,2.49,0,0,1,11.87.71,26,26,0,0,1,25.15,1c1.8.51,2.36,2,1.41,3.7a2.52,2.52,0,0,0-.25,2A15.83,15.83,0,0,1,26.46,14c-.69,2.73,0,5.49.27,8.22.63,7.08,1.44,14.15,2.08,21.23a20.59,20.59,0,0,0,3.78,10.79c3.4,4.49,4.36,9.47,4.2,15-.23,7.73-.15,15.47-.21,23.2,0,1.69,0,3.38,0,5.07Z"/><path class="cls-2" d="M13.62,45.59c.72.18,1.45.32,2.15.54,3.25,1,6.22.28,9.1-1.33.8-.45,1.84-1.27,2.55-.87.53.29.5,1.63.69,2.51a24.12,24.12,0,0,0,4.29,9.71,16.08,16.08,0,0,1,3.19,9.79q.1,10.86.17,21.72a10.31,10.31,0,0,1,0,1.11c-.05.51,0,1.11-.78,1.16s-1.08-.43-1.2-1.1c-.29-1.62-.59-3.24-.89-4.85-.14-.73-.26-1.46-.43-2.17-1-4.24-3.25-6.36-7.54-7a33.66,33.66,0,0,0-14.39,1.07,10.68,10.68,0,0,0-3.27,1.68c-.86-.21-.64-.94-.65-1.49a65.89,65.89,0,0,1,.57-9.81A59.84,59.84,0,0,1,10.21,54a53.43,53.43,0,0,0,2.52-7.71c.09-.45.24-.92.89-.71Z"/><path class="cls-3" d="M7.17,90.87c3,.09,6.07.16,9.11.27,5.14.19,10.28,0,15.4-.24,3.85-.21,3.85-.38,3.85,3.36s0,7.65,0,11.47c0,.8-.18,1.12-1,1.26a88.43,88.43,0,0,1-16.57,1.16,92.94,92.94,0,0,1-11-.75,1.66,1.66,0,0,1-.3-1.39,19.83,19.83,0,0,0,.15-4.42c-.16-3.28.57-6.54.13-9.81a1.06,1.06,0,0,1,.3-.91Z"/><path class="cls-4" d="M6.92,108.42a28.81,28.81,0,0,0,5.24.37c4.72.18,9.44.27,14.16.22a44.85,44.85,0,0,0,6.08-.74c.6-.09,1,0,.81.64-.94,4-1.23,8.12-2.8,11.94a8,8,0,0,1-7.11,5.08,29.94,29.94,0,0,1-11-.53,10,10,0,0,1-5.64-3.7,4.68,4.68,0,0,1-.4-2c0-3,0-5.9,0-8.85a3.09,3.09,0,0,1,.65-2.41Z"/><path class="cls-2" d="M6.93,123.42c2.63,2.45,5.86,3.35,9.34,3.62a28.75,28.75,0,0,0,8.59-.43,8.81,8.81,0,0,0,6.73-6.22A92.78,92.78,0,0,0,34,109.71a3.78,3.78,0,0,1,.2-.82c.14-.31.4-.61.74-.58s.36.47.36.78c-.09,7.15.3,14.32-.3,21.46-.25,2.94-1,5.8-3.91,7.41l-.23.08a22.19,22.19,0,0,1-7.22.28,49.43,49.43,0,0,1-11.63-1.92,6.82,6.82,0,0,1-5.22-5.61,26.66,26.66,0,0,1-.52-6.11c0-.48-.15-1.12.62-1.26Z"/><path class="cls-4" d="M6.89,79.21a7.75,7.75,0,0,1,4.74-2.86c3.78-.75,7.6-1.38,11.49-.84a18.62,18.62,0,0,1,5.81,1.9,4,4,0,0,1,2.17,2.84c.62,3,1.14,6,1.74,8.94.17.87-.27.88-.94.93-8,.69-16,.09-24-.06-.73,0-1.06-.42-1.12-1.17a76.14,76.14,0,0,1-.26-8.13,3.64,3.64,0,0,1,.37-1.55Z"/><path class="cls-5" d="M25.14,17.49c.65,6.84,1.29,13.67,2,20.5a1.14,1.14,0,0,1-.8,1.39,40.63,40.63,0,0,0-3.81,1.71,9.18,9.18,0,0,1-8.41,0A2.25,2.25,0,0,1,14,39.47c.42-4.25.76-8.51,1.36-12.74a38.31,38.31,0,0,0,.09-4.55c0-1.48,0-3,0-4.44,0-.77.31-1.16,1.21-1.14,2.5.06,5,0,7.51,0,.71,0,.94.28,1,.89Z"/><path class="cls-6" d="M13.62,45.59c-.24.07-.46.15-.51.45-.68,4.2-2.67,8-3.91,12a82.82,82.82,0,0,0-1.85,9.23c-.61,3.25-.4,6.52-.42,9.79,0,.17.18.34.28.51-2.91,2.66-3.67,6.3-4.5,9.92-.13.55-.23,1.12-.37,1.67-.09.36-.19.75-.69.73S1,89.41,1,89c0-1.89-.09-3.79,0-5.67.26-5.88.17-11.76.19-17.64a14.86,14.86,0,0,1,3-9.19A26.39,26.39,0,0,0,8.89,45.38c.28-1.54.28-1.56,1.79-1,1,.37,2,.81,2.94,1.21Z"/><path class="cls-6" d="M6.93,123.42c-.61,1.2-.29,2.49-.22,3.71a20,20,0,0,0,.71,4.6A6.19,6.19,0,0,0,12.06,136a53.43,53.43,0,0,0,15.76,2c1,0,2.05,0,3.08,0a15.16,15.16,0,0,1-7.13,2.11,40.72,40.72,0,0,1-15-.86c-4.35-1.22-6.63-3.88-7-8.41C1.2,125,1.54,119,1.45,113.13c0-1.77,0-3.53,0-5.46a1.77,1.77,0,0,1,1.05,1.67c.21,2.08.4,4.17.66,6.24a13.4,13.4,0,0,0,3.78,7.84Z"/><path class="cls-7" d="M25.14,17.49A1.09,1.09,0,0,0,24,16.71c-2.38.05-4.77.06-7.15,0-.92,0-1.08.36-1.06,1.17.06,2,0,3.94.05,5.91,0,4-.82,7.9-1.11,11.86-.13,1.84-.4,3.66-.61,5.49-1-.36-2.07-.79-3.14-1.06s-1.45-.79-1.33-2c.72-6.91,1.35-13.83,2-20.75.06-.63.28-.84.91-.84q5.87,0,11.73-.05c.77,0,1.07.27.9,1Z"/><path class="cls-8" d="M7.17,90.87c.41,5.52-.07,11-.28,16.53-1.52,0-3-.3-4.52-.43-.87-.08-1-.49-1-1.2,0-4.77,0-9.54-.06-14.32,0-.68.34-.63.75-.63l5.06.05Z"/><path class="cls-6" d="M15.56,15.73c-.53,0-1.07,0-1.6,0-2.33,0-2.55-.2-2.83-2.51A23.43,23.43,0,0,1,11.82,5c.18-.79.71-.64,1.12-.52a5.65,5.65,0,0,0,3.13-.19,11.37,11.37,0,0,1,4.27.18,14.72,14.72,0,0,0,3.31.14c.94-.1,1.37.4,1.52,1.24s.3,1.85.44,2.78c-2.2.26-4.42,0-6.63.11-.45,0-.9,0-1.35,0a1.05,1.05,0,0,0-1.27,1.13,2.9,2.9,0,0,1-.4,1.4c-.88.89-2.14.51-3,.86.85-.07,1.85-.5,2.77.27a4.37,4.37,0,0,1-.15,3.35Z"/><path class="cls-2" d="M15.56,15.73V12.32a1,1,0,0,1,.88-.36c1.91,0,3.83-.11,5.46,0a21.56,21.56,0,0,0-4.47-.32c-.56,0-1.17.1-1.62-.38.08-.81.17-1.62.24-2.42a.51.51,0,0,1,.55-.52c2.9,0,5.79.05,8.69.09.11,0,.21.1.32.16a14.68,14.68,0,0,1-.34,6.22c-.11.54-.31.79-.85.82a59.55,59.55,0,0,1-8.86.09Z"/><path class="cls-9" d="M13.82,42.15a31.15,31.15,0,0,0,3.83.85,8.8,8.8,0,0,0,5.2-1.13,29.48,29.48,0,0,1,3.8-1.72c.64-.27.75-.08.8.52.19,2.29.57,1.7-1.47,2.72l-.34.14c-6.59,2.94-4.55,2.72-11.81,1.08-.94-.81-.44-1.64,0-2.46Z"/><path class="cls-10" d="M23.65,3.88a51.75,51.75,0,0,1-5.27-.43c-1.68-.26-3.35.21-5,.19a5.75,5.75,0,0,1-1.1,0c-.52-.1-1.26,0-1.37-.72S11.37,1.7,12,1.53A18.83,18.83,0,0,1,18.37,1c1.64.11,3.27.25,4.9.43,1.15.12,2.32.24,2.76,1.63.18.55.18.86-.53.82s-1.23,0-1.85,0Z"/><path class="cls-11" d="M6.92,108.42c-.57,4.42-.18,8.85-.26,13.28a14,14,0,0,1-2.91-7.59c-.22-1.75-.21-3.52-.36-5.28-.05-.62.12-.8.73-.71.93.13,1.87.2,2.8.3Z"/><path class="cls-12" d="M6.89,79.21c0,3.28,0,6.54.21,9.81a1,1,0,0,0,.8,1c-1.43.14-2.84-.33-4.27-.17-.33,0-.67-.13-.54-.6.85-3.15,1.22-6.46,3.09-9.26a9.06,9.06,0,0,1,.71-.82Z"/><path class="cls-13" d="M13.82,42.15c.22.82-.59,1.64,0,2.46a23.15,23.15,0,0,1-3.75-1.13c-.57-.23-1.15-2.44-.76-2.89.24-.27.53-.11.79,0a20.63,20.63,0,0,1,3.71,1.59Z"/><path class="cls-14" d="M25.15,50c0-.77,0-1.26,0-1.75,0-.32,0-.74.38-.82s.62.36.72.7a9.33,9.33,0,0,1,.25,1.32c.35,2.47,1.88,4.37,3.27,6.25a13.67,13.67,0,0,1,2.81,7c.1,1,.19,1.95.25,2.94a4.06,4.06,0,0,1-.13,1.09c-.13.52-.28,1.13-1,1.13s-.84-.56-.94-1.11c-.31-1.78-.63-3.55-.92-5.33a6.74,6.74,0,0,0-1.29-3,24.35,24.35,0,0,1-2.89-5.27A6.18,6.18,0,0,1,25.15,50Z"/><path class="cls-15" d="M28.17,61.35c0,1-.33,1.36-1.05,1.35A1,1,0,0,1,26,61.65a1.09,1.09,0,0,1,1.18-1.15.92.92,0,0,1,1,.85Z"/><path class="cls-15" d="M24.37,66.65c-.62-.16-1.12-.53-1.08-1.23a1,1,0,0,1,1.12-1,1.05,1.05,0,0,1,1,1.26c0,.62-.4.94-1.06,1Z"/><path class="cls-16" d="M25.68,58.8c0,.75-.45,1-1.07.94s-.93-.39-.93-1,.29-1,1-1a1,1,0,0,1,1,1Z"/><path class="cls-17" d="M15.81,11.29c2.38.09,4.82-.27,7.11,1H12.34c1.07-.81,2.32-.72,3.47-1Z"/></g></g></svg>