<svg xmlns="http://www.w3.org/2000/svg" viewBox="0 0 36.76 143.42"><defs><style>.cls-1{fill:#13110c;}.cls-1,.cls-10,.cls-11,.cls-12,.cls-13,.cls-14,.cls-15,.cls-16,.cls-17,.cls-18,.cls-19,.cls-2,.cls-20,.cls-21,.cls-3,.cls-4,.cls-5,.cls-6,.cls-7,.cls-8,.cls-9{fill-rule:evenodd;}.cls-2{fill:#8d3615;}.cls-3{fill:#903616;}.cls-4{fill:#ce970d;}.cls-5{fill:#662a15;}.cls-6{fill:#ebecd9;}.cls-7{fill:#692b15;}.cls-8{fill:#946b1b;}.cls-9{fill:#a9a696;}.cls-10{fill:#dfd3c1;}.cls-11{fill:#cf980c;}.cls-12{fill:#9f9482;}.cls-13{fill:#8e671b;}.cls-14{fill:#caa091;}.cls-15{fill:#c89d8e;}.cls-16{fill:#c69987;}.cls-17{fill:#c3927f;}.cls-18{fill:#13120d;}.cls-19{fill:#c99e8f;}.cls-20{fill:#e9ead7;}.cls-21{fill:#a7a595;}</style></defs><g id="Capa_2" data-name="Capa 2"><g id="Capa_1-2" data-name="Capa 1"><path class="cls-1" d="M36.74,100.26c0,6,.06,12.09,0,18.13-.07,5.1.23,10.22-.29,15.28a9.59,9.59,0,0,1-8,8.66,49.88,49.88,0,0,1-19.21.3c-4.57-.88-7.71-3.49-8.91-8.13a17.7,17.7,0,0,1-.18-4.3c0-9.47-.18-18.93,0-28.39S.26,82.73.45,73.19c.09-4.48.31-8.94,2.16-13.14,1-2.26,2.39-4.3,3.32-6.6A40.4,40.4,0,0,0,8.49,42C9,36.08,9.64,30.2,10.15,24.31a50.5,50.5,0,0,0,.18-10.21,14.37,14.37,0,0,1,.3-5,6.21,6.21,0,0,0-.16-3.52,8.07,8.07,0,0,1-.54-2,2.51,2.51,0,0,1,2.15-3A32.75,32.75,0,0,1,24.94.78a2.62,2.62,0,0,1,1.62,4.06A5.1,5.1,0,0,0,26,9.56a6.77,6.77,0,0,1,.24,4.1c-.52,2-.17,4.1,0,6.14.7,8.48,1.18,17,2.23,25.41a31,31,0,0,0,4.16,12.27,24,24,0,0,1,3.29,12.45c.12,9.33.32,18.66.48,28,0,.78,0,1.56,0,2.34Z"/><path class="cls-2" d="M12.67,48.61c4.81,0,9.6-.27,14.39-.68.31,0,.59,0,.66.33.92,5,3.89,9.2,5.84,13.79a18.22,18.22,0,0,1,1.3,6.61c.17,5.26.31,10.52.22,15.78,0,.69,0,1.39,0,2.08,0,.3,0,.65-.33.74s-.46-.27-.61-.5a15.1,15.1,0,0,0-10-6.55,21.09,21.09,0,0,0-16.84,3c-.83-.19-.6-.9-.59-1.4,0-1.92.27-3.84.24-5.77-.06-3.53,0-7.06,0-10.59a14.45,14.45,0,0,1,1.45-6.53,45.92,45.92,0,0,0,3.89-9.43,1.75,1.75,0,0,1,.47-.85Z"/><path class="cls-3" d="M6.45,125.44A24,24,0,0,0,15,130.12c.92.26,1.83.59,2.64-.26.22-.24.43-.18.6.06,1,1.41,2.35,1,3.67.66a20.44,20.44,0,0,0,11.94-9.35c.39-.63.83-1.22,1.33-1.94a3.32,3.32,0,0,1,.4,1.77c.07,4.07,0,8.15-.26,12.2a8.09,8.09,0,0,1-5.12,7.24,24.38,24.38,0,0,1-8.17.45,49.35,49.35,0,0,1-9.42-1.68c-3.51-.9-5.53-2.83-6-6.51-.28-2.16-.47-4.32-.62-6.48,0-.34-.1-.77.44-.84Z"/><path class="cls-4" d="M7,84.67c2.32-2.3,5.26-3.26,8.37-3.83a19.7,19.7,0,0,1,13.36,2.08,13.33,13.33,0,0,1,5.65,6,7.69,7.69,0,0,1,.77,3.2c.09,3.49.08,7,.31,10.47.26,3.86,0,7.72.14,11.57a7.8,7.8,0,0,1-1.2,4.45c-1.82,3.05-3.72,6-6.68,8.13a30.07,30.07,0,0,1-6.9,3.2,1.35,1.35,0,0,1-1.65-.48c-.64-.83-1.33-1.21-2.26-.37a1.31,1.31,0,0,1-1.3.2,20.41,20.41,0,0,1-9.4-5.59,3.74,3.74,0,0,1,0-3.22c.73-.25,1,.37,1.4.75a12.42,12.42,0,0,0,8.19,4.12,15,15,0,0,0,11.87-3.72,15.59,15.59,0,0,0,5.05-8.72,38.84,38.84,0,0,0,.78-15.06,18,18,0,0,0-7.26-11.8,13,13,0,0,0-9-2.21,16.6,16.6,0,0,0-9,3.46c-.35.26-.73.55-1.24.32a2.86,2.86,0,0,1,0-3Z"/><path class="cls-2" d="M24.53,8.32a11.31,11.31,0,0,1,.55,5.89c-.4,2.71.2,5.47.2,8.22,0,2,.16,3.92.25,5.89,0,.52,0,1-.65,1.09a33.47,33.47,0,0,1-11,.4,2,2,0,0,1-.39-1.51c.08-5.38.26-10.75.76-16.11a1.39,1.39,0,0,1,1.37-1.42,20.79,20.79,0,0,1,6.08.05A19.37,19.37,0,0,0,16,10.75c-.78.16-1.37-.05-1.48-1s.2-1.7,1.07-1.74c2.75-.14,5.5-.13,8.25,0a1.23,1.23,0,0,1,.66.31Z"/><path class="cls-5" d="M12.67,48.61a19.86,19.86,0,0,1-2,6.17c-.85,1.95-1.83,3.84-2.73,5.77a9.76,9.76,0,0,0-.67,4.09c-.07,4.4,0,8.81,0,13.21,0,1.39-.16,2.78-.22,4.17,0,.39-.13.83.24,1.16a19,19,0,0,0-5.43,7,2.61,2.61,0,0,1-.26-1.57c0-5.21,0-10.43.06-15.64.09-4.85.48-9.67,2.86-14.06,1.59-2.93,2.91-6,4.21-9a1.72,1.72,0,0,1,2-1.27,18.45,18.45,0,0,0,2,0Z"/><path class="cls-6" d="M13.91,33.06c3.78,0,7.55,0,11.33,0,.55,0,.77.11.83.72q.49,5.2,1.08,10.4c.06.59-.2.69-.68.75a43.64,43.64,0,0,1-6.36.52c-2.13.21-4.26,0-6.38.09-.92,0-.91-.66-1-1.27-.11-1.93.24-3.84.3-5.76.05-1.47.4-2.92.45-4.4a1.38,1.38,0,0,1,.38-1Z"/><path class="cls-7" d="M6.45,125.44c0,1.33-.08,2.66.06,4a32.4,32.4,0,0,0,1.21,6,3.54,3.54,0,0,0,2.14,2.39,38,38,0,0,0,11.29,2.71,76.4,76.4,0,0,0,9.08,0c-2,1.17-4.34,1.38-6.6,1.68a46.53,46.53,0,0,1-10.55,0,17.78,17.78,0,0,1-7.53-2A8.88,8.88,0,0,1,1.1,132.3c-.15-4.35-.05-8.71-.05-13.06a3.08,3.08,0,0,1,.16-.55,81.46,81.46,0,0,0,5.24,6.75Z"/><path class="cls-5" d="M24.53,8.32H16c-.37,0-.92-.19-1.06.34A2.06,2.06,0,0,0,15,10.34c.25.39.74.11,1.14.07A15.19,15.19,0,0,1,23,11a12.58,12.58,0,0,1-3.52-.05c-1.44-.32-2.85.19-4.28.2-.53,0-.57.48-.59.92-.2,3.55-.46,7.1-.57,10.66-.07,2.37-.12,4.75-.17,7.12h-.37c-2.44,0-2.42,0-2.38-2.39,0-3.24.16-6.47.5-9.69.19-1.73-.25-3.43-.24-5.15a16.47,16.47,0,0,1,.44-4.14,6.46,6.46,0,0,0-.29-3c-.1-.49-.13-.86.49-.81,1.62.13,3.18-.37,4.75-.43a45.71,45.71,0,0,1,6.61.37c1.8.2,1.79.3,1.34,2.07a4.86,4.86,0,0,0-.22,1.69Z"/><path class="cls-8" d="M6.44,120.48c-.41,1.06-.05,2.17-.24,3.24a15.73,15.73,0,0,1-5.11-11.48q-.11-8.38.28-16.76A14.65,14.65,0,0,1,7,84.67c.14,1-.31,2,.28,3,.05.57-.38.88-.7,1.24a17.62,17.62,0,0,0-4.46,11.94A46.6,46.6,0,0,0,4,114.42a25.42,25.42,0,0,0,2.07,4.72c.22.41.64.79.34,1.34Z"/><path class="cls-9" d="M13.91,33.06c-.25,3.6-.47,7.19-.77,10.78-.09,1.15.17,1.61,1.43,1.54,1.84-.1,3.69,0,5.54,0a40.21,40.21,0,0,1-6.85.15c-.94,0-1.89-.18-2.82-.12s-1.08-.35-1-1.14c.36-3.46.7-6.93,1-10.39.06-.67.3-.94,1-.89s1.64,0,2.46,0Z"/><path class="cls-10" d="M20.35.89a18.68,18.68,0,0,1,4,.6A3,3,0,0,1,25.45,2a1.52,1.52,0,0,1,.69,1.49c-.16.54-.83.19-1.27.17-3.49-.17-7-.37-10.47-.31A.91.91,0,0,1,15,2.19c1.73-.67,3.39-1.66,5.36-1.3Z"/><path class="cls-11" d="M18.3,30.52h6.17c.56,0,1.27-.13,1.28.73s-.65.86-1.24.87c-4.23.06-8.47.12-12.7-.11-.57,0-.81-.26-.83-.81,0-.75.47-.66.91-.61,2.14.23,4.27-.13,6.41-.08Z"/><path class="cls-4" d="M21.56,46.16c1.55-.15,3.1-.28,4.65-.45.6-.06,1.13,0,1.23.68s-.58.64-1,.71a72.6,72.6,0,0,1-13.5.71c-.54-1.25-.37-1.54.92-1.56,2.57,0,5.14.1,7.71-.09Z"/><path class="cls-12" d="M20.35.89c-1.82-.05-3.32,1-5,1.44a1.48,1.48,0,0,0-.95,1l-2.81.15c-.85.05-1-.34-.7-1A1.6,1.6,0,0,1,12,1.41,22.65,22.65,0,0,1,20.35.89Z"/><path class="cls-13" d="M21.56,46.16c-1.47.44-3,.15-4.48.22a16.48,16.48,0,0,1-2.81,0c-1.24-.17-1.51.4-1.34,1.45-.95,0-1.89,0-2.83,0-.44,0-1.09.2-1-.63,0-.66.19-1.14,1.08-1.12,3,.07,6,.06,9,.08Z"/><path class="cls-14" d="M32.69,69.72a10.7,10.7,0,0,1-.38,3.46c-.14.47-.35,1.06-.92,1s-.56-.64-.67-1.07a22.87,22.87,0,0,1-.46-4.66c-.19-3.91-1.59-7.45-3.15-11a24.46,24.46,0,0,1-1.58-5c-.09-.43-.32-1.15.26-1.31s.72.57,1,1a7.77,7.77,0,0,1,.56,1.36c1,2.7,2.82,5,3.82,7.73a23.44,23.44,0,0,1,1.56,8.51Z"/><path class="cls-15" d="M28.25,63.88c-.06.56-.33,1-1,1a1,1,0,0,1-1-1,.94.94,0,0,1,1-1.09,1,1,0,0,1,1,1.09Z"/><path class="cls-16" d="M26.3,61.28c0,.47-.19.85-.7.82a.9.9,0,0,1-.85-1c0-.43.17-.7.62-.7a.83.83,0,0,1,.93.87Z"/><path class="cls-17" d="M24.49,64c-.11.42-.32.79-.8.73a.72.72,0,0,1-.61-.79.68.68,0,0,1,.66-.73c.48,0,.69.33.75.79Z"/><path class="cls-18" d="M6.44,120.48a31,31,0,0,1-4.25-13c-.63-5.11-1-10.23,1.49-15.06a20.88,20.88,0,0,1,3.59-4.81,17,17,0,0,1,10.81-4.19c5.74-.22,9.83,2.52,12.88,7.2s3.69,9.83,3.12,15.24c-.37,3.55-.7,7.1-2.15,10.44a15.58,15.58,0,0,1-20.69,8.1,14.49,14.49,0,0,1-4.8-4Z"/><path class="cls-19" d="M23.81,20.73c0,2.18,0,3.66,0,5.14,0,.37,0,.83-.48.87s-.52-.43-.57-.79a85.25,85.25,0,0,1-.25-9.59c0-.34.09-.71.5-.73s.56.4.62.77a30.76,30.76,0,0,1,.18,4.33Z"/><path class="cls-20" d="M7,89.37c2.63-3.06,6.06-4.44,10-5,7.76-1.08,14.15,6.36,15.44,12,.86,3.83.59,7.68.38,11.53a22.51,22.51,0,0,1-2.41,9.1,14.45,14.45,0,0,1-18.49,6.5,11,11,0,0,1-5.48-5.27,6.38,6.38,0,0,1-.21-3.16,12.55,12.55,0,0,0,.11-2.21c0-6.32,0-12.64,0-19A12,12,0,0,1,7,89.37Z"/><path class="cls-21" d="M7,89.37c-.47,8.25-.11,16.51-.31,24.76,0,1.39-.17,2.78-.26,4.17a22.31,22.31,0,0,1-2.83-9A49.19,49.19,0,0,1,3,98.92a15,15,0,0,1,4-9.55Z"/></g></g></svg>